<?xml version="1.0" encoding="UTF-8"?>
<svg xmlns="http://www.w3.org/2000/svg" xmlns:xlink="http://www.w3.org/1999/xlink" version="1.2" >
<font id="SFR Bold">
<font-face  font-family="SFR" units-per-em="1000" ascent="900" descent="-300" font-style="normal" font-weight="700" font-stretch="normal" cap-height="678" x-height="524" underline-position="-61" underline-thickness="123" />
<missing-glyph  horiz-adv-x="509" d="M1 0 L1 714 L507 714 L507 0 L1 0 Z M380 88 Q348 134 318 178.5 Q288 223 253 276 Q222 228 191 182 Q160 136 128 88 L380 88 Z M128 624 Q160 577 191 531 Q222 485 253 437 Q285 485 316.5 531 Q348 577 380 624 L128 624 Z M84 179 Q114 223 143.5 266 Q173 309 204 356 Q186 383 172.5 403 Q159 423 145.5 442 Q132 461 118 482 L84 533 L84 179 Z M422 534 Q393 489 363 445 Q333 401 303 356 Q333 311 363 267.5 Q393 224 422 179 L422 534 Z " />
<glyph glyph-name=".null" d="" />
<glyph glyph-name="nonmarkingreturn" unicode="&#xd;" horiz-adv-x="248" d="" />
<glyph glyph-name="space" unicode="&#x20;" horiz-adv-x="313" d="" />
<glyph glyph-name="exclam" unicode="&#x21;" horiz-adv-x="316" d="M106 235 L76 502 L76 718 L241 718 L241 502 L210 235 L106 235 Z M119 0 Q102 7 90.5 19 Q79 31 73 46 Q67 61 67 76 Q67 111 90.5 137 Q114 163 159 163 Q205 163 227.5 137 Q250 111 250 76 Q250 61 244.5 46 Q239 31 227.5 19 Q216 7 199 0 Q182 -7 159 -7 Q136 -7 119 0 Z " />
<glyph glyph-name="quotedbl" unicode="&#x22;" horiz-adv-x="464" d="M78 438 L64 706 L199 706 L187 438 L78 438 Z M278 438 L265 706 L399 706 L387 438 L278 438 Z " />
<glyph glyph-name="numbersign" unicode="&#x23;" horiz-adv-x="617" d="M242 284 L340 284 L373 398 L275 398 L242 284 Z M47 0 L98 184 L1 184 L25 284 L123 284 L156 398 L61 398 L84 499 L183 499 L235 690 L354 690 L301 499 L399 499 L452 690 L571 690 L518 499 L615 499 L592 398 L492 398 L459 284 L556 284 L533 184 L433 184 L383 0 L264 0 L314 184 L216 184 L166 0 L47 0 Z " />
<glyph glyph-name="dollar" unicode="&#x24;" horiz-adv-x="626" d="M370 120 Q393 128 409 145 Q425 162 425 188 Q425 212 410 227 Q395 242 370 253 L370 120 Z M267 573 Q238 566 224 550 Q210 534 210 511 Q210 486 224.5 471 Q239 456 267 445 L267 573 Z M267 -111 L267 -10 Q175 -2 117 42.5 Q59 87 42 168 L182 206 Q190 171 210 148 Q230 125 267 116 L267 285 L261 287 Q228 296 192 310 Q156 324 126 347 Q96 370 76.5 404 Q57 438 57 489 Q57 531 72.5 566.5 Q88 602 116 629 Q144 656 182.5 673.5 Q221 691 267 697 L267 802 L370 802 L370 696 Q449 685 502 646.5 Q555 608 575 549 L433 501 Q425 524 408.5 540.5 Q392 557 370 566 L370 414 L380 412 Q417 402 452.5 386.5 Q488 371 516 347.5 Q544 324 561 290.5 Q578 257 578 211 Q578 168 562.5 131.5 Q547 95 519.5 67 Q492 39 454 20.5 Q416 2 370 -6 L370 -111 L267 -111 Z " />
<glyph glyph-name="percent" unicode="&#x25;" horiz-adv-x="935" d="M229 -24 L615 720 L705 720 L319 -24 L229 -24 Z M667 115 Q682 80 718 80 Q753 80 768 115 Q783 150 783 211 Q783 275 768 308 Q753 341 718 341 Q682 341 667 308 Q652 275 652 211 Q652 150 667 115 Z M718 -9 Q633 -9 586 47 Q539 103 539 211 Q539 322 586 376.5 Q633 431 718 431 Q802 431 849 376.5 Q896 322 896 211 Q896 103 849 47 Q802 -9 718 -9 Z M167 386 Q182 351 218 351 Q253 351 268.5 386 Q284 421 284 482 Q284 546 268.5 579 Q253 612 218 612 Q182 612 167 579 Q152 546 152 482 Q152 421 167 386 Z M218 262 Q133 262 86 318 Q39 374 39 482 Q39 593 86 647.5 Q133 702 218 702 Q302 702 349.5 647.5 Q397 593 397 482 Q397 374 349.5 318 Q302 262 218 262 Z " />
<glyph glyph-name="ampersand" unicode="&#x26;" horiz-adv-x="757" d="M311 416 Q370 439 391 466 Q412 493 412 519 Q412 554 389 574.5 Q366 595 326 595 Q282 595 264 573.5 Q246 552 246 526 Q246 477 307 420 L311 416 Z M245 296 Q210 276 197 251 Q184 226 184 203 Q184 157 217 131 Q250 105 303 105 Q362 105 412 138 L245 296 Z M502 53 Q456 22 403.5 5 Q351 -12 292 -12 Q232 -12 184.5 2 Q137 16 103 41.5 Q69 67 51 102 Q33 137 33 180 Q33 205 38.5 231 Q44 257 59.5 281.5 Q75 306 102 328 Q129 350 171 368 Q138 404 119.5 441 Q101 478 101 524 Q101 565 117 598 Q133 631 163 654 Q193 677 235.5 689.5 Q278 702 330 702 Q384 702 426.5 688.5 Q469 675 498 652 Q527 629 542.5 598.5 Q558 568 558 533 Q558 512 552 488.5 Q546 465 527.5 441 Q509 417 474.5 393 Q440 369 383 348 L504 233 Q525 267 538 303 Q551 339 556 371 L693 341 Q681 287 657 237 Q633 187 599 144 L751 0 L559 0 L502 53 Z " />
<glyph glyph-name="quotesingle" unicode="&#x27;" horiz-adv-x="263" d="M78 438 L64 706 L199 706 L187 438 L78 438 Z " />
<glyph glyph-name="parenleft" unicode="&#x28;" horiz-adv-x="375" d="M214 -191 Q140 -105 95 11 Q50 127 50 270 Q50 413 95 529.5 Q140 646 214 731 L347 731 Q270 640 227 519 Q184 398 184 270 Q184 207 195 144 Q206 81 227 21.5 Q248 -38 278.5 -92 Q309 -146 347 -191 L214 -191 Z " />
<glyph glyph-name="parenright" unicode="&#x29;" horiz-adv-x="375" d="M25 -191 Q63 -146 93.5 -92 Q124 -38 145 21.5 Q166 81 177 144 Q188 207 188 270 Q188 398 145 519 Q102 640 25 731 L158 731 Q232 646 276.5 529.5 Q321 413 321 270 Q321 127 276.5 11 Q232 -105 158 -191 L25 -191 Z " />
<glyph glyph-name="asterisk" unicode="&#x2a;" horiz-adv-x="525" d="M84 361 L178 485 L36 527 L67 625 L208 581 L207 731 L319 731 L317 581 L458 625 L489 526 L347 485 L440 360 L355 298 L262 421 L169 298 L84 361 Z " />
<glyph glyph-name="plus" unicode="&#x2b;" horiz-adv-x="644" d="M45 283 L45 408 L263 408 L263 623 L381 623 L381 408 L598 408 L598 283 L381 283 L381 68 L263 68 L263 283 L45 283 Z " />
<glyph glyph-name="comma" unicode="&#x2c;" horiz-adv-x="313" d="M37 -117 L91 159 L251 159 L153 -117 L37 -117 Z " />
<glyph glyph-name="hyphen" unicode="&#x2d;" horiz-adv-x="313" d="M31 209 L31 357 L281 357 L281 209 L31 209 Z " />
<glyph glyph-name="period" unicode="&#x2e;" horiz-adv-x="313" d="M157 -7 Q112 -7 88.5 19 Q65 45 65 76 Q65 111 88.5 137 Q112 163 157 163 Q203 163 225.5 137 Q248 111 248 76 Q248 61 242.5 46 Q237 31 225.5 19 Q214 7 197 0 Q180 -7 157 -7 Z " />
<glyph glyph-name="slash" unicode="&#x2f;" horiz-adv-x="422" d="M0 -55 L301 731 L422 731 L120 -55 L0 -55 Z " />
<glyph glyph-name="zero" unicode="0" horiz-adv-x="626" d="M216 174 Q232 144 256.5 127.5 Q281 111 314 111 Q347 111 370.5 127.5 Q394 144 409.5 174.5 Q425 205 432.5 248.5 Q440 292 440 345 Q440 457 410 518 Q380 579 314 579 Q247 579 216.5 518 Q186 457 186 345 Q186 292 193.5 248.5 Q201 205 216 174 Z M195 11 Q142 35 104.5 80 Q67 125 47 191.5 Q27 258 27 345 Q27 434 47 501 Q67 568 104.5 612.5 Q142 657 195 679.5 Q248 702 314 702 Q379 702 432 679.5 Q485 657 522 612.5 Q559 568 579 501 Q599 434 599 345 Q599 258 579 191.5 Q559 125 522 80 Q485 35 432 11.5 Q379 -12 314 -12 Q248 -12 195 11 Z " />
<glyph glyph-name="one" unicode="1" horiz-adv-x="626" d="M289 0 L289 534 L135 469 L91 592 L307 690 L444 690 L444 0 L289 0 Z " />
<glyph glyph-name="two" unicode="2" horiz-adv-x="626" d="M51 0 L51 119 L216 243 Q280 290 318 325 Q356 360 376.5 387.5 Q397 415 403 437 Q409 459 409 480 Q409 498 403 514.5 Q397 531 384.5 544.5 Q372 558 352 566 Q332 574 304 574 Q260 574 230.5 551.5 Q201 529 191 491 L52 519 Q62 567 87.5 602 Q113 637 149 659 Q185 681 229 691.5 Q273 702 320 702 Q373 702 418 686.5 Q463 671 497 643 Q531 615 550 575 Q569 535 569 487 Q569 442 556 404.5 Q543 367 516.5 333 Q490 299 449 265 Q408 231 352 192 L260 128 L580 128 L580 0 L51 0 Z " />
<glyph glyph-name="three" unicode="3" horiz-adv-x="626" d="M178 205 Q187 168 216.5 142 Q246 116 302 116 Q363 116 393 142 Q423 168 423 210 Q423 257 383 276 Q343 295 268 295 L199 295 L199 415 L267 415 Q345 415 376 437.5 Q407 460 407 497 Q407 536 376.5 555 Q346 574 303 574 Q254 574 222.5 555.5 Q191 537 181 499 L47 526 Q57 575 83 608.5 Q109 642 145 663 Q181 684 225 693 Q269 702 315 702 Q369 702 415 689 Q461 676 494.5 652.5 Q528 629 547.5 595 Q567 561 567 519 Q567 494 560 469.5 Q553 445 537 423.5 Q521 402 495.5 385 Q470 368 433 358 Q465 354 492.5 340 Q520 326 540 305.5 Q560 285 571.5 258.5 Q583 232 583 202 Q583 151 562 111.5 Q541 72 504 44.5 Q467 17 416.5 2.5 Q366 -12 307 -12 Q259 -12 214.5 -3 Q170 6 134 27 Q98 48 72.5 82 Q47 116 36 165 L178 205 Z " />
<glyph glyph-name="four" unicode="4" horiz-adv-x="626" d="M163 266 L347 266 L347 542 L163 266 Z M27 144 L27 265 L300 690 L502 690 L502 266 L607 266 L607 144 L502 144 L502 0 L347 0 L347 144 L27 144 Z " />
<glyph glyph-name="five" unicode="5" horiz-adv-x="626" d="M176 205 Q185 168 215 142 Q245 116 303 116 Q360 116 393 144 Q426 172 426 223 Q426 253 415 273 Q404 293 384.5 305 Q365 317 337 322 Q309 327 275 327 Q234 327 189 318.5 Q144 310 79 293 L79 690 L536 690 L536 564 L212 564 L212 439 Q247 449 276.5 452 Q306 455 344 455 Q397 455 441 440.5 Q485 426 517.5 398 Q550 370 568 329 Q586 288 586 235 Q586 187 568.5 142.5 Q551 98 515.5 63.5 Q480 29 425.5 8.5 Q371 -12 297 -12 Q253 -12 210.5 -3 Q168 6 132 27 Q96 48 70.5 82 Q45 116 34 165 L176 205 Z " />
<glyph glyph-name="six" unicode="6" horiz-adv-x="626" d="M276 308 Q242 299 198 267 Q201 239 210 212 Q219 185 235 163.5 Q251 142 275.5 129 Q300 116 334 116 Q385 116 413 146.5 Q441 177 441 222 Q441 274 414 296 Q387 318 333 318 Q310 318 276 308 Z M536 535 Q504 551 463.5 560.5 Q423 570 383 570 Q334 570 300.5 559 Q267 548 245.5 525.5 Q224 503 213 469.5 Q202 436 198 392 Q252 427 301.5 437.5 Q351 448 379 448 Q485 448 538.5 393 Q592 338 592 239 Q592 190 575 144.5 Q558 99 523.5 64.5 Q489 30 438.5 9 Q388 -12 320 -12 Q242 -12 188 17.5 Q134 47 100.5 95 Q67 143 52.5 203.5 Q38 264 38 326 Q38 398 54.5 465.5 Q71 533 110 585.5 Q149 638 214 670 Q279 702 377 702 Q419 702 468 694.5 Q517 687 558 668 L536 535 Z " />
<glyph glyph-name="seven" unicode="7" horiz-adv-x="626" d="M79 0 L417 555 L61 555 L61 690 L588 690 L588 564 L260 0 L79 0 Z " />
<glyph glyph-name="eight" unicode="8" horiz-adv-x="626" d="M215 515 Q215 476 245 455.5 Q275 435 330 420 Q372 437 393 458 Q414 479 414 514 Q414 552 386 572 Q358 592 316 592 Q264 592 239.5 570 Q215 548 215 515 Z M197 196 Q197 153 230 130 Q263 107 314 107 Q371 107 400.5 132 Q430 157 430 198 Q430 215 424 229 Q418 243 403.5 255.5 Q389 268 364.5 279 Q340 290 303 301 Q252 285 224.5 260 Q197 235 197 196 Z M78 289 Q118 331 188 359 Q129 384 96 422 Q63 460 63 521 Q63 563 81 596.5 Q99 630 132.5 653.5 Q166 677 213.5 689.5 Q261 702 319 702 Q378 702 424.5 688.5 Q471 675 503 652 Q535 629 551.5 597.5 Q568 566 568 530 Q568 473 537.5 433.5 Q507 394 443 368 Q516 341 554.5 301.5 Q593 262 593 191 Q593 145 573 107.5 Q553 70 516 43.5 Q479 17 428 2.5 Q377 -12 314 -12 Q254 -12 203.5 1.5 Q153 15 116 40 Q79 65 58.5 99.5 Q38 134 38 177 Q38 247 78 289 Z " />
<glyph glyph-name="nine" unicode="9" horiz-adv-x="626" d="M349 381 Q383 390 427 422 Q423 451 414.5 478 Q406 505 390 526.5 Q374 548 350 561 Q326 574 291 574 Q240 574 212.5 543.5 Q185 513 185 468 Q185 416 212 394 Q239 372 293 372 Q316 372 349 381 Z M89 155 Q121 139 161.5 129.5 Q202 120 242 120 Q291 120 324.5 131 Q358 142 379.5 164 Q401 186 412 219.5 Q423 253 427 297 Q400 280 373.5 269 Q347 258 323.5 252 Q300 246 280.5 244 Q261 242 247 242 Q141 242 87.5 297 Q34 352 34 451 Q34 500 51 545.5 Q68 591 102 625.5 Q136 660 187 681 Q238 702 305 702 Q383 702 437 672.5 Q491 643 524.5 595 Q558 547 572.5 486.5 Q587 426 587 364 Q587 292 570.5 224.5 Q554 157 515 104.5 Q476 52 411 20 Q346 -12 248 -12 Q206 -12 157.5 -4.5 Q109 3 67 22 L89 155 Z " />
<glyph glyph-name="colon" unicode="&#x3a;" horiz-adv-x="313" d="M157 -7 Q112 -7 88.5 19 Q65 45 65 76 Q65 111 88.5 137 Q112 163 157 163 Q203 163 225.5 137 Q248 111 248 76 Q248 61 242.5 46 Q237 31 225.5 19 Q214 7 197 0 Q180 -7 157 -7 Z M157 344 Q112 344 88.5 369.5 Q65 395 65 427 Q65 462 88.5 488 Q112 514 157 514 Q203 514 225.5 488 Q248 462 248 427 Q248 395 225.5 369.5 Q203 344 157 344 Z " />
<glyph glyph-name="semicolon" unicode="&#x3b;" horiz-adv-x="313" d="M164 344 Q119 344 95.5 369.5 Q72 395 72 427 Q72 462 95.5 488 Q119 514 164 514 Q210 514 232.5 488 Q255 462 255 427 Q255 411 249.5 396 Q244 381 233 369.5 Q222 358 204.5 351 Q187 344 164 344 Z M35 -117 L89 159 L249 159 L151 -117 L35 -117 Z " />
<glyph glyph-name="less" unicode="&#x3c;" horiz-adv-x="565" d="M28 283 L28 405 L538 603 L538 460 L192 345 L538 230 L538 86 L28 283 Z " />
<glyph glyph-name="equal" unicode="&#x3d;" horiz-adv-x="565" d="M28 414 L28 536 L538 536 L538 414 L28 414 Z M28 155 L28 278 L538 278 L538 155 L28 155 Z " />
<glyph glyph-name="greater" unicode="&#x3e;" horiz-adv-x="565" d="M28 86 L28 230 L373 345 L28 459 L28 602 L538 405 L538 283 L28 86 Z " />
<glyph glyph-name="question" unicode="&#x3f;" horiz-adv-x="579" d="M278 -7 Q233 -7 209.5 19 Q186 45 186 76 Q186 111 209.5 137 Q233 163 278 163 Q324 163 346.5 137 Q369 111 369 76 Q369 61 363.5 46 Q358 31 346.5 19 Q335 7 318 0 Q301 -7 278 -7 Z M201 230 Q201 267 209.5 295 Q218 323 232 344.5 Q246 366 263.5 383 Q281 400 299 414 Q330 438 353.5 462.5 Q377 487 377 523 Q377 556 354 579 Q331 602 288 602 Q251 602 221.5 581.5 Q192 561 187 513 L40 543 Q46 587 67.5 622 Q89 657 122.5 681 Q156 705 200 718 Q244 731 295 731 Q349 731 392.5 717 Q436 703 467 678 Q498 653 514.5 617.5 Q531 582 531 538 Q531 499 519.5 469.5 Q508 440 489.5 416 Q471 392 449 373.5 Q427 355 406 338 Q381 318 363 293 Q345 268 345 230 L201 230 Z " />
<glyph glyph-name="at" unicode="&#x40;" horiz-adv-x="918" d="M727 -62 Q702 -86 670.5 -102.5 Q639 -119 603 -129.5 Q567 -140 528.5 -145 Q490 -150 451 -150 Q361 -150 285.5 -122 Q210 -94 155.5 -41.5 Q101 11 70.5 85 Q40 159 40 252 Q40 356 74 443 Q108 530 168 593 Q228 656 309 691 Q390 726 484 726 Q558 726 616 710 Q674 694 718 667.5 Q762 641 792 605.5 Q822 570 841 531.5 Q860 493 868.5 453 Q877 413 877 377 Q877 299 856.5 237.5 Q836 176 801 133.5 Q766 91 720 69 Q674 47 624 47 Q572 47 549.5 62.5 Q527 78 522 111 Q496 83 455.5 65 Q415 47 372 47 Q305 47 266.5 93.5 Q228 140 228 220 Q228 292 249 350.5 Q270 409 308 450 Q346 491 399.5 513.5 Q453 536 517 536 Q578 536 625.5 523.5 Q673 511 701 496 L650 203 Q647 184 648.5 170 Q650 156 670 156 Q691 156 712 167 Q733 178 750.5 202.5 Q768 227 778.5 266.5 Q789 306 789 363 Q789 431 767.5 483.5 Q746 536 705.5 572.5 Q665 609 607 628 Q549 647 477 647 Q445 647 407 638.5 Q369 630 331 611 Q293 592 258 561 Q223 530 196 486 Q169 442 153 383 Q137 324 137 249 Q137 160 166 99 Q195 38 241 0.5 Q287 -37 344.5 -53 Q402 -69 460 -69 Q486 -69 516.5 -65.5 Q547 -62 577 -54 Q607 -46 634 -33 Q661 -20 680 -1 L727 -62 Z M552 411 Q527 422 496 422 Q466 422 443.5 408 Q421 394 405.5 369 Q390 344 382.5 310.5 Q375 277 375 238 Q375 197 392 182 Q409 167 431 167 Q458 167 482.5 182 Q507 197 520 225 L552 411 Z " />
<glyph glyph-name="A" unicode="A" horiz-adv-x="709" d="M261 265 L444 265 L352 510 L261 265 Z M5 0 L265 678 L444 678 L703 0 L533 0 L484 135 L221 135 L172 0 L5 0 Z " />
<glyph glyph-name="B" unicode="B" horiz-adv-x="676" d="M70 0 L70 678 L366 678 Q408 678 453 671.5 Q498 665 534.5 647 Q571 629 594.5 597 Q618 565 618 515 Q618 483 608.5 458 Q599 433 582 413.5 Q565 394 542 380.5 Q519 367 493 359 Q558 346 599 308.5 Q640 271 640 196 Q640 105 572.5 52.5 Q505 0 380 0 L70 0 Z M229 123 L356 123 Q419 123 446.5 148.5 Q474 174 474 213 Q474 239 464 254.5 Q454 270 436.5 278.5 Q419 287 395 290 Q371 293 343 293 L229 293 L229 123 Z M229 404 L347 404 Q395 404 423.5 423.5 Q452 443 452 480 Q452 500 443.5 514.5 Q435 529 421 538 Q407 547 388.5 551 Q370 555 349 555 L229 555 L229 404 Z " />
<glyph glyph-name="C" unicode="C" horiz-adv-x="675" d="M648 207 Q616 94 540.5 39 Q465 -16 355 -16 Q276 -16 216.5 9 Q157 34 117 81 Q77 128 57 194.5 Q37 261 37 344 Q37 430 61 495.5 Q85 561 128.5 605 Q172 649 231.5 671.5 Q291 694 361 694 Q420 694 466.5 679 Q513 664 548 638 Q583 612 606 575.5 Q629 539 640 495 L491 462 Q477 506 443.5 531.5 Q410 557 360 557 Q322 557 292.5 541.5 Q263 526 243 498.5 Q223 471 213 431.5 Q203 392 203 344 Q203 235 244 178 Q285 121 361 121 Q412 121 449.5 149.5 Q487 178 504 239 L648 207 Z " />
<glyph glyph-name="D" unicode="D" horiz-adv-x="721" d="M70 0 L70 678 L327 678 Q415 678 481.5 655 Q548 632 592.5 589.5 Q637 547 659.5 486.5 Q682 426 682 351 Q682 272 660 207 Q638 142 595.5 96 Q553 50 489.5 25 Q426 0 343 0 L70 0 Z M229 138 L318 138 Q363 138 399.5 149 Q436 160 462.5 185.5 Q489 211 503 251.5 Q517 292 517 351 Q517 419 495 456.5 Q473 494 440 513 Q407 532 367.5 536 Q328 540 292 540 L229 540 L229 138 Z " />
<glyph glyph-name="E" unicode="E" horiz-adv-x="594" d="M70 0 L70 678 L539 678 L539 542 L229 542 L229 411 L506 411 L506 278 L229 278 L229 136 L551 136 L551 0 L70 0 Z " />
<glyph glyph-name="F" unicode="F" horiz-adv-x="578" d="M70 0 L70 678 L546 678 L546 536 L229 536 L229 382 L496 382 L496 244 L229 244 L229 0 L70 0 Z " />
<glyph glyph-name="G" unicode="G" horiz-adv-x="724" d="M390 241 L390 362 L666 362 L666 29 Q600 6 526.5 -5 Q453 -16 381 -16 Q292 -16 227.5 8.5 Q163 33 121 79.5 Q79 126 59 192.5 Q39 259 39 343 Q39 431 66 496.5 Q93 562 140 606 Q187 650 249.5 672 Q312 694 383 694 Q443 694 490 681 Q537 668 572 644 Q607 620 629.5 587 Q652 554 663 514 L526 472 Q511 516 473.5 539.5 Q436 563 384 563 Q339 563 305.5 546.5 Q272 530 249.5 500.5 Q227 471 215.5 430.5 Q204 390 204 343 Q204 232 246.5 172.5 Q289 113 387 113 Q422 113 455 117.5 Q488 122 520 133 L520 241 L390 241 Z " />
<glyph glyph-name="H" unicode="H" horiz-adv-x="733" d="M70 0 L70 678 L229 678 L229 420 L504 420 L504 678 L663 678 L663 0 L504 0 L504 278 L229 278 L229 0 L70 0 Z " />
<glyph glyph-name="I" unicode="I" horiz-adv-x="300" d="M70 0 L70 678 L229 678 L229 0 L70 0 Z " />
<glyph glyph-name="J" unicode="J" horiz-adv-x="457" d="M31 154 Q51 143 76.5 137 Q102 131 127 131 Q174 131 202.5 153.5 Q231 176 231 227 L231 678 L391 678 L391 230 Q391 166 374 119.5 Q357 73 325 43 Q293 13 247.5 -1.5 Q202 -16 146 -16 Q110 -16 74.5 -9.5 Q39 -3 13 7 L31 154 Z " />
<glyph glyph-name="K" unicode="K" horiz-adv-x="704" d="M70 0 L70 678 L241 678 L241 425 L307 425 L493 678 L682 678 L446 360 L703 0 L507 0 L308 277 L241 277 L241 0 L70 0 Z " />
<glyph glyph-name="L" unicode="L" horiz-adv-x="562" d="M70 0 L70 678 L229 678 L229 142 L518 142 L518 0 L70 0 Z " />
<glyph glyph-name="M" unicode="M" horiz-adv-x="851" d="M70 0 L70 678 L246 678 L425 386 L605 678 L781 678 L781 0 L630 0 L630 447 L467 178 L384 178 L222 447 L222 0 L70 0 Z " />
<glyph glyph-name="N" unicode="N" horiz-adv-x="745" d="M70 0 L70 678 L238 678 L524 266 L524 678 L675 678 L675 0 L519 0 L221 422 L221 0 L70 0 Z " />
<glyph glyph-name="O" unicode="O" horiz-adv-x="746" d="M254 173 Q277 147 308 134.5 Q339 122 373 122 Q407 122 438 134 Q469 146 492.5 172.5 Q516 199 530 240 Q544 281 544 339 Q544 398 530 439 Q516 480 492.5 506 Q469 532 438 544 Q407 556 373 556 Q339 556 308 544 Q277 532 254 506 Q231 480 217 439 Q203 398 203 339 Q203 282 217 240.5 Q231 199 254 173 Z M238 9 Q176 34 131.5 80 Q87 126 62 192 Q37 258 37 339 Q37 422 61 487.5 Q85 553 128.5 599 Q172 645 234.5 669.5 Q297 694 373 694 Q450 694 512 669.5 Q574 645 618 599 Q662 553 685.5 487.5 Q709 422 709 339 Q709 258 684 192 Q659 126 614.5 80 Q570 34 508.5 9 Q447 -16 373 -16 Q300 -16 238 9 Z " />
<glyph glyph-name="P" unicode="P" horiz-adv-x="654" d="M229 331 L341 331 Q376 331 399.5 340.5 Q423 350 437 365 Q451 380 456.5 399 Q462 418 462 437 Q462 452 458 470 Q454 488 441.5 504 Q429 520 405.5 530.5 Q382 541 343 541 L229 541 L229 331 Z M70 0 L70 678 L372 678 Q408 678 452 669 Q496 660 535 634.5 Q574 609 600.5 563.5 Q627 518 627 444 Q627 389 608.5 343.5 Q590 298 555.5 266 Q521 234 472.5 216.5 Q424 199 363 199 L229 199 L229 0 L70 0 Z " />
<glyph glyph-name="Q" unicode="Q" horiz-adv-x="746" d="M254 173 Q277 147 308 134.5 Q339 122 373 122 Q407 122 438 134.5 Q469 147 492.5 173 Q516 199 530 240 Q544 281 544 339 Q544 396 530 437.5 Q516 479 492.5 505 Q469 531 438 543.5 Q407 556 373 556 Q339 556 308 544 Q277 532 254 505.5 Q231 479 217 438 Q203 397 203 339 Q203 282 217 240.5 Q231 199 254 173 Z M607 -184 Q562 -183 519.5 -174 Q477 -165 442 -144.5 Q407 -124 380 -92 Q353 -60 338 -14 Q272 -8 216.5 19.5 Q161 47 121 92.5 Q81 138 59 200.5 Q37 263 37 339 Q37 422 61 487.5 Q85 553 128.5 599 Q172 645 234.5 669.5 Q297 694 373 694 Q450 694 512 669.5 Q574 645 618 599 Q662 553 685.5 487.5 Q709 422 709 339 Q709 276 693 222 Q677 168 648.5 126 Q620 84 580 53.5 Q540 23 491 6 Q508 -23 537.5 -36 Q567 -49 623 -50 L607 -184 Z " />
<glyph glyph-name="R" unicode="R" horiz-adv-x="684" d="M229 368 L355 368 Q390 368 412.5 374.5 Q435 381 448 393 Q461 405 466.5 421.5 Q472 438 472 458 Q472 473 468 489 Q464 505 451.5 518 Q439 531 416.5 539.5 Q394 548 357 548 L229 548 L229 368 Z M70 0 L70 678 L379 678 Q424 678 470 668.5 Q516 659 553 635 Q590 611 613 570.5 Q636 530 636 469 Q636 387 592 337 Q548 287 472 272 L661 0 L478 0 L318 242 L229 242 L229 0 L70 0 Z " />
<glyph glyph-name="S" unicode="S" horiz-adv-x="615" d="M173 206 Q185 161 219 137.5 Q253 114 312 114 Q358 114 388.5 132 Q419 150 419 186 Q419 205 409 218.5 Q399 232 382 242 Q365 252 342.5 259 Q320 266 295 273 L256 284 Q219 295 181.5 307.5 Q144 320 114 342 Q84 364 65 397 Q46 430 46 481 Q46 528 66 567.5 Q86 607 121.5 635 Q157 663 205 678.5 Q253 694 310 694 Q413 694 484 653 Q555 612 578 541 L429 491 Q416 529 381 546.5 Q346 564 306 564 Q263 564 239 548.5 Q215 533 215 504 Q215 485 223.5 472.5 Q232 460 249 450.5 Q266 441 291.5 433.5 Q317 426 350 418 L384 409 Q421 400 457.5 386 Q494 372 523 349 Q552 326 570 291.5 Q588 257 588 205 Q588 150 565.5 109 Q543 68 505 40 Q467 12 415.5 -2 Q364 -16 307 -16 Q183 -16 113.5 30 Q44 76 25 166 L173 206 Z " />
<glyph glyph-name="T" unicode="T" horiz-adv-x="607" d="M224 0 L224 536 L18 536 L18 678 L589 678 L589 536 L382 536 L382 0 L224 0 Z " />
<glyph glyph-name="U" unicode="U" horiz-adv-x="711" d="M226 255 Q226 218 236 193 Q246 168 263.5 152 Q281 136 304.5 129 Q328 122 355 122 Q382 122 405.5 129 Q429 136 446.5 152 Q464 168 474 193 Q484 218 484 255 L484 678 L643 678 L643 251 Q643 187 623 137.5 Q603 88 566 54 Q529 20 475.5 2.5 Q422 -15 355 -15 Q220 -15 144 54 Q68 123 68 251 L68 678 L226 678 L226 255 Z " />
<glyph glyph-name="V" unicode="V" horiz-adv-x="709" d="M262 0 L11 678 L185 678 L356 169 L528 678 L698 678 L447 0 L262 0 Z " />
<glyph glyph-name="W" unicode="W" horiz-adv-x="1023" d="M210 0 L17 678 L191 678 L305 196 L434 678 L594 678 L719 196 L837 678 L1005 678 L813 0 L638 0 L514 438 L385 0 L210 0 Z " />
<glyph glyph-name="X" unicode="X" horiz-adv-x="714" d="M12 0 L260 354 L34 678 L227 678 L363 475 L498 678 L677 678 L449 355 L702 0 L510 0 L349 229 L190 0 L12 0 Z " />
<glyph glyph-name="Y" unicode="Y" horiz-adv-x="675" d="M256 0 L256 267 L7 678 L191 678 L343 420 L490 678 L667 678 L427 267 L427 0 L256 0 Z " />
<glyph glyph-name="Z" unicode="Z" horiz-adv-x="615" d="M34 0 L34 124 L348 536 L61 536 L61 678 L568 678 L568 556 L250 142 L588 142 L588 0 L34 0 Z " />
<glyph glyph-name="bracketleft" unicode="&#x5b;" horiz-adv-x="375" d="M75 -183 L75 731 L327 731 L327 607 L210 607 L210 -59 L327 -59 L327 -183 L75 -183 Z " />
<glyph glyph-name="backslash" unicode="&#x5c;" horiz-adv-x="422" d="M301 -55 L0 731 L121 731 L422 -55 L301 -55 Z " />
<glyph glyph-name="bracketright" unicode="&#x5d;" horiz-adv-x="375" d="M47 -183 L47 -59 L165 -59 L165 607 L47 607 L47 731 L300 731 L300 -183 L47 -183 Z " />
<glyph glyph-name="asciicircum" unicode="&#x5e;" horiz-adv-x="565" d="M35 249 L225 706 L340 706 L530 249 L394 249 L282 549 L170 249 L35 249 Z " />
<glyph glyph-name="underscore" unicode="&#x5f;" horiz-adv-x="626" d="M1 -184 L1 -61 L624 -61 L624 -184 L1 -184 Z " />
<glyph glyph-name="grave" unicode="&#x60;" horiz-adv-x="500" d="M255 577 L140 749 L282 749 L360 577 L255 577 Z " />
<glyph glyph-name="a" unicode="a" horiz-adv-x="589" d="M361 222 Q307 222 273.5 218 Q240 214 221 206 Q202 198 195.5 186.5 Q189 175 189 159 Q189 133 206 119.5 Q223 106 255 106 Q283 106 312 115.5 Q341 125 361 142 L361 222 Z M55 374 Q59 418 79.5 448.5 Q100 479 130.5 498.5 Q161 518 199.5 527 Q238 536 279 536 Q342 536 386 521 Q430 506 457.5 479.5 Q485 453 497.5 417 Q510 381 510 340 L510 151 Q510 131 516.5 119.5 Q523 108 540 108 Q548 108 555 109 Q562 110 569 112 L584 2 Q562 -4 540 -8 Q518 -12 486 -12 Q444 -12 418.5 2 Q393 16 379 50 Q364 35 344 24 Q324 13 300.5 5.5 Q277 -2 253 -6 Q229 -10 206 -10 Q169 -10 137.5 -0.5 Q106 9 83.5 28.5 Q61 48 48 76.5 Q35 105 35 142 Q35 183 49.5 216 Q64 249 100.5 273 Q137 297 200.5 310.5 Q264 324 361 325 L361 346 Q361 378 343 397.5 Q325 417 280 417 Q236 417 215 401.5 Q194 386 190 352 L55 374 Z " />
<glyph glyph-name="b" unicode="b" horiz-adv-x="597" d="M211 121 Q228 116 250.5 112.5 Q273 109 293 109 Q325 109 347.5 121 Q370 133 384 153.5 Q398 174 404.5 201.5 Q411 229 411 260 Q411 341 378 378 Q345 415 284 415 Q267 415 247 411.5 Q227 408 211 401 L211 121 Z M211 516 Q234 527 263 531.5 Q292 536 321 536 Q367 536 410.5 524 Q454 512 488 480.5 Q522 449 543 395 Q564 341 564 257 Q564 202 549 153.5 Q534 105 501 68 Q468 31 416.5 9.5 Q365 -12 293 -12 Q221 -12 162.5 2.5 Q104 17 61 40 L61 731 L211 731 L211 516 Z " />
<glyph glyph-name="c" unicode="c" horiz-adv-x="568" d="M536 147 Q512 78 453.5 33 Q395 -12 300 -12 Q231 -12 180.5 10 Q130 32 97 69.5 Q64 107 48 157.5 Q32 208 32 266 Q32 321 48 370 Q64 419 97 456 Q130 493 180.5 514.5 Q231 536 300 536 Q395 536 453.5 491 Q512 446 536 377 L399 342 Q387 376 363 397.5 Q339 419 300 419 Q267 419 245.5 405 Q224 391 211 369 Q198 347 192.5 320 Q187 293 187 266 Q187 237 192 208 Q197 179 210 156 Q223 133 245 119 Q267 105 300 105 Q339 105 363 126.5 Q387 148 399 182 L536 147 Z " />
<glyph glyph-name="d" unicode="d" horiz-adv-x="597" d="M386 403 Q369 410 350 412.5 Q331 415 316 415 Q186 415 186 252 Q186 189 213 149 Q240 109 304 109 Q323 109 346 112 Q369 115 386 121 L386 403 Z M536 40 Q493 17 434 2.5 Q375 -12 304 -12 Q232 -12 180.5 8 Q129 28 96 63 Q63 98 47.5 146 Q32 194 32 249 Q32 333 53 388 Q74 443 108.5 476 Q143 509 189 522.5 Q235 536 284 536 Q310 536 340 531 Q370 526 386 518 L386 731 L536 731 L536 40 Z " />
<glyph glyph-name="e" unicode="e" horiz-adv-x="553" d="M217 401 Q189 376 184 328 Q208 323 236 321 Q264 319 284 319 Q342 319 364 330 Q386 341 386 367 Q386 392 364.5 409 Q343 426 295 426 Q245 426 217 401 Z M500 25 Q458 6 409 -3 Q360 -12 317 -12 Q175 -12 103.5 59.5 Q32 131 32 260 Q32 317 48 367.5 Q64 418 96.5 455.5 Q129 493 179 514.5 Q229 536 297 536 Q353 536 395 522 Q437 508 465 484.5 Q493 461 506.5 430 Q520 399 520 364 Q520 318 506.5 287.5 Q493 257 466.5 239 Q440 221 401 213.5 Q362 206 310 206 Q271 206 240.5 209 Q210 212 182 218 Q188 164 226.5 138 Q265 112 333 112 Q365 112 407.5 120.5 Q450 129 482 143 L500 25 Z " />
<glyph glyph-name="f" unicode="f" horiz-adv-x="399" d="M82 0 L82 410 L13 410 L13 524 L82 524 L82 572 Q82 658 134 694.5 Q186 731 282 731 Q315 731 350 725 Q385 719 415 708 L397 599 Q377 607 353.5 611.5 Q330 616 313 616 Q275 616 253.5 604 Q232 592 232 561 L232 524 L389 524 L389 410 L232 410 L232 0 L82 0 Z " />
<glyph glyph-name="g" unicode="g" horiz-adv-x="604" d="M224 285 Q246 262 291 262 Q336 262 358 285 Q380 308 380 347 Q380 387 359 409.5 Q338 432 293 432 Q248 432 225.5 409.5 Q203 387 203 347 Q203 308 224 285 Z M268 -18 Q217 -18 194 -29.5 Q171 -41 171 -67 Q171 -103 208 -118 Q245 -133 303 -133 Q328 -133 352.5 -129.5 Q377 -126 397 -118 Q417 -110 429.5 -96 Q442 -82 442 -61 Q442 -33 418.5 -25.5 Q395 -18 346 -18 L268 -18 Z M419 107 Q513 107 555 69.5 Q597 32 597 -41 Q597 -84 574.5 -117.5 Q552 -151 512 -174 Q472 -197 416.5 -209 Q361 -221 295 -221 Q232 -221 180.5 -214 Q129 -207 92.5 -191.5 Q56 -176 36 -150.5 Q16 -125 16 -88 Q16 -1 111 20 Q91 34 76 60.5 Q61 87 61 118 Q61 156 76.5 182 Q92 208 106 224 Q83 244 66.5 276.5 Q50 309 50 347 Q50 391 67 426 Q84 461 115.5 485.5 Q147 510 192 523 Q237 536 293 536 Q319 536 345 533 Q371 530 390 524 L593 524 L593 416 L509 416 Q521 402 526.5 383.5 Q532 365 532 347 Q532 259 469 211.5 Q406 164 291 164 Q264 164 242.5 167.5 Q221 171 204 177 Q199 169 196 162 Q193 155 193 144 Q193 125 209.5 116 Q226 107 268 107 L419 107 Z " />
<glyph glyph-name="h" unicode="h" horiz-adv-x="615" d="M61 0 L61 731 L211 731 L211 457 Q234 488 270.5 512 Q307 536 368 536 Q417 536 452.5 519 Q488 502 511 473.5 Q534 445 545 409.5 Q556 374 556 336 L556 0 L406 0 L406 320 Q406 357 385.5 380 Q365 403 322 403 Q274 403 247.5 379.5 Q221 356 211 323 L211 0 L61 0 Z " />
<glyph glyph-name="i" unicode="i" horiz-adv-x="282" d="M142 600 Q101 600 80 623 Q59 646 59 675 Q59 707 80 730 Q101 753 142 753 Q183 753 203 730 Q223 707 223 675 Q223 646 203 623 Q183 600 142 600 Z M66 0 L66 524 L216 524 L216 0 L66 0 Z " />
<glyph glyph-name="j" unicode="j" horiz-adv-x="298" d="M-35 -88 Q-8 -96 17 -96 Q80 -96 80 -19 L80 524 L230 524 L230 -53 Q230 -94 216.5 -124.5 Q203 -155 179 -175.5 Q155 -196 122.5 -206 Q90 -216 51 -216 Q28 -216 0 -213 Q-28 -210 -49 -204 L-35 -88 Z M156 600 Q115 600 94 623 Q73 646 73 675 Q73 707 94 730 Q115 753 156 753 Q197 753 217 730 Q237 707 237 675 Q237 646 217 623 Q197 600 156 600 Z " />
<glyph glyph-name="k" unicode="k" horiz-adv-x="594" d="M60 0 L60 731 L210 731 L210 353 L267 353 Q300 396 333 438.5 Q366 481 398 524 L569 524 L382 288 L596 0 L419 0 Q381 53 342 105 Q303 157 265 211 L210 211 L210 0 L60 0 Z " />
<glyph glyph-name="l" unicode="l" horiz-adv-x="340" d="M326 3 Q303 -4 274 -8 Q245 -12 220 -12 Q133 -12 95.5 26 Q58 64 58 151 L58 731 L208 731 L208 184 Q208 146 218.5 127 Q229 108 263 108 Q291 108 316 115 L326 3 Z " />
<glyph glyph-name="m" unicode="m" horiz-adv-x="930" d="M61 0 L61 524 L208 524 L208 457 Q220 472 234.5 486.5 Q249 501 268 512 Q287 523 311.5 529.5 Q336 536 367 536 Q430 536 468 507 Q506 478 523 436 Q547 481 589.5 508.5 Q632 536 686 536 Q737 536 772.5 519 Q808 502 830.5 474 Q853 446 863 409 Q873 372 873 331 L873 0 L723 0 L723 324 Q723 362 705 382.5 Q687 403 646 403 Q609 403 581 381.5 Q553 360 541 321 Q542 313 542 308 L542 0 L392 0 L392 324 Q392 362 374 382.5 Q356 403 315 403 Q276 403 249 380.5 Q222 358 211 323 L211 0 L61 0 Z " />
<glyph glyph-name="n" unicode="n" horiz-adv-x="614" d="M61 0 L61 524 L208 524 L208 457 Q230 489 269 512.5 Q308 536 366 536 Q416 536 452 520 Q488 504 511 476 Q534 448 545 411 Q556 374 556 333 L556 0 L406 0 L406 312 Q406 355 387 379 Q368 403 321 403 Q297 403 278.5 396 Q260 389 246.5 377.5 Q233 366 224.5 352 Q216 338 211 324 L211 0 L61 0 Z " />
<glyph glyph-name="o" unicode="o" horiz-adv-x="601" d="M211 156 Q224 133 246 119 Q268 105 301 105 Q334 105 356 119 Q378 133 391 156 Q404 179 409.5 208 Q415 237 415 266 Q415 293 409.5 320 Q404 347 390.5 369 Q377 391 355.5 405 Q334 419 301 419 Q268 419 246 405 Q224 391 211 369 Q198 347 192.5 320 Q187 293 187 266 Q187 237 192.5 208 Q198 179 211 156 Z M181 10 Q131 32 98 69.5 Q65 107 48.5 157.5 Q32 208 32 266 Q32 321 48 370 Q64 419 97.5 456 Q131 493 181.5 514.5 Q232 536 301 536 Q370 536 420.5 514.5 Q471 493 504 456 Q537 419 553 370 Q569 321 569 266 Q569 208 553 157.5 Q537 107 504 69.5 Q471 32 420.5 10 Q370 -12 301 -12 Q232 -12 181 10 Z " />
<glyph glyph-name="p" unicode="p" horiz-adv-x="596" d="M211 121 Q228 114 247.5 111.5 Q267 109 281 109 Q411 109 411 272 Q411 304 404.5 330 Q398 356 384 375 Q370 394 347.5 404.5 Q325 415 293 415 Q274 415 251 412 Q228 409 211 403 L211 121 Z M61 -194 L61 484 Q104 507 163 521.5 Q222 536 293 536 Q420 536 492.5 469 Q565 402 565 275 Q565 196 544.5 141 Q524 86 489 52 Q454 18 409 3 Q364 -12 314 -12 Q288 -12 258 -7 Q228 -2 211 6 L211 -194 L61 -194 Z " />
<glyph glyph-name="q" unicode="q" horiz-adv-x="596" d="M385 403 Q368 408 345 411.5 Q322 415 303 415 Q271 415 248.5 403 Q226 391 212 370.5 Q198 350 191.5 322.5 Q185 295 185 264 Q185 183 218 146 Q251 109 311 109 Q328 109 348.5 112.5 Q369 116 385 123 L385 403 Z M385 -194 L385 8 Q367 -1 334 -6.5 Q301 -12 274 -12 Q229 -12 185 0 Q141 12 107 43.5 Q73 75 52 129 Q31 183 31 267 Q31 322 46.5 371 Q62 420 95 456.5 Q128 493 179.5 514.5 Q231 536 303 536 Q374 536 433 521.5 Q492 507 535 484 L535 -194 L385 -194 Z " />
<glyph glyph-name="r" unicode="r" horiz-adv-x="416" d="M61 0 L61 524 L204 524 L204 442 Q237 495 278.5 513.5 Q320 532 360 532 Q373 532 387 529.5 Q401 527 411 523 L391 383 Q380 387 368 388.5 Q356 390 346 390 Q302 390 267 372.5 Q232 355 211 329 L211 0 L61 0 Z " />
<glyph glyph-name="s" unicode="s" horiz-adv-x="523" d="M153 166 Q163 132 191.5 113 Q220 94 259 94 Q291 94 316.5 106.5 Q342 119 342 145 Q342 168 319 179 Q296 190 265 198 L209 211 Q178 219 147.5 230.5 Q117 242 93 260 Q69 278 54 304.5 Q39 331 39 371 Q39 408 57 438.5 Q75 469 105 490.5 Q135 512 175 524 Q215 536 260 536 Q301 536 338 527.5 Q375 519 404.5 503.5 Q434 488 455 466 Q476 444 485 417 L358 376 Q347 405 319 417.5 Q291 430 262 430 Q230 430 212 418 Q194 406 194 388 Q194 364 217.5 354.5 Q241 345 281 335 L337 322 Q368 315 396.5 304 Q425 293 447.5 274.5 Q470 256 483.5 228.5 Q497 201 497 162 Q497 117 476.5 84 Q456 51 423 30 Q390 9 347.5 -1.5 Q305 -12 261 -12 Q166 -12 101.5 25 Q37 62 23 131 L153 166 Z " />
<glyph glyph-name="t" unicode="t" horiz-adv-x="441" d="M14 409 L14 483 L185 660 L237 660 L237 524 L405 524 L405 409 L237 409 L237 210 Q237 159 258 134 Q279 109 337 109 Q378 109 414 121 L432 11 Q400 -1 362 -6.5 Q324 -12 286 -12 Q189 -12 138 35 Q87 82 87 192 L87 409 L14 409 Z " />
<glyph glyph-name="u" unicode="u" horiz-adv-x="604" d="M395 0 L395 66 Q375 34 338 11 Q301 -12 237 -12 Q192 -12 158.5 3 Q125 18 102.5 44 Q80 70 69 105.5 Q58 141 58 182 L58 524 L208 524 L208 204 Q208 187 211.5 172 Q215 157 223.5 145.5 Q232 134 247 127.5 Q262 121 286 121 Q331 121 356 144 Q381 167 392 198 L392 524 L542 524 L542 0 L395 0 Z " />
<glyph glyph-name="v" unicode="v" horiz-adv-x="589" d="M206 0 L11 524 L171 524 L294 169 L418 524 L578 524 L378 0 L206 0 Z " />
<glyph glyph-name="w" unicode="w" horiz-adv-x="830" d="M169 0 L12 524 L162 524 L251 199 L349 524 L480 524 L581 199 L669 524 L817 524 L657 0 L514 0 L414 310 L317 0 L169 0 Z " />
<glyph glyph-name="x" unicode="x" horiz-adv-x="598" d="M12 0 L193 270 L28 524 L203 524 L298 368 L394 524 L567 524 L398 275 L585 0 L401 0 L291 175 L183 0 L12 0 Z " />
<glyph glyph-name="y" unicode="y" horiz-adv-x="583" d="M50 -85 Q78 -96 109 -96 Q155 -96 179 -72.5 Q203 -49 217 -4 L12 524 L173 524 L299 163 L419 524 L572 524 L363 -44 Q346 -91 325 -124 Q304 -157 277.5 -177.5 Q251 -198 217.5 -207 Q184 -216 143 -216 Q115 -216 86 -211 Q57 -206 33 -196 L50 -85 Z " />
<glyph glyph-name="z" unicode="z" horiz-adv-x="522" d="M34 0 L34 106 L278 401 L55 401 L55 524 L475 524 L475 413 L232 122 L486 122 L486 0 L34 0 Z " />
<glyph glyph-name="braceleft" unicode="&#x7b;" horiz-adv-x="375" d="M286 -183 Q196 -183 154 -145.5 Q112 -108 112 -16 L112 78 Q112 148 95.5 178.5 Q79 209 34 209 L34 339 Q79 339 95.5 369.5 Q112 400 112 470 L112 564 Q112 656 154 693.5 Q196 731 286 731 L342 731 L342 608 L316 608 Q291 608 276.5 604 Q262 600 254.5 590 Q247 580 245 562.5 Q243 545 243 518 L243 437 Q243 354 216 316.5 Q189 279 151 274 Q189 269 216 231.5 Q243 194 243 111 L243 30 Q243 3 245 -14.5 Q247 -32 254.5 -42 Q262 -52 276.5 -56 Q291 -60 316 -60 L342 -60 L342 -183 L286 -183 Z " />
<glyph glyph-name="bar" unicode="&#x7c;" horiz-adv-x="264" d="M72 -183 L72 731 L191 731 L191 -183 L72 -183 Z " />
<glyph glyph-name="braceright" unicode="&#x7d;" horiz-adv-x="375" d="M34 -183 L34 -60 L60 -60 Q84 -60 98.5 -56 Q113 -52 120.5 -42 Q128 -32 130.5 -14.5 Q133 3 133 30 L133 111 Q133 194 160 231.5 Q187 269 225 274 Q187 279 160 316.5 Q133 354 133 437 L133 518 Q133 545 130.5 562.5 Q128 580 120.5 590 Q113 600 98.5 604 Q84 608 60 608 L34 608 L34 731 L89 731 Q179 731 221.5 693.5 Q264 656 264 564 L264 470 Q264 400 280.5 369.5 Q297 339 341 339 L341 209 Q297 209 280.5 178.5 Q264 148 264 78 L264 -16 Q264 -108 221.5 -145.5 Q179 -183 89 -183 L34 -183 Z " />
<glyph glyph-name="asciitilde" unicode="&#x7e;" horiz-adv-x="565" d="M37 383 Q63 409 95.5 424.5 Q128 440 166 440 Q197 440 226.5 429 Q256 418 285 405.5 Q314 393 342 382 Q370 371 398 371 Q440 371 471 390.5 Q502 410 528 440 L528 307 Q502 281 470 265.5 Q438 250 400 250 Q369 250 339.5 261 Q310 272 281 284.5 Q252 297 223.5 308 Q195 319 167 319 Q125 319 94 299.5 Q63 280 37 251 L37 383 Z " />
<glyph glyph-name="Euro" unicode="&#x20ac;" horiz-adv-x="626" d="M51 208 L51 311 L145 311 Q144 319 144 327 L144 375 L51 375 L51 478 L158 478 Q169 528 190.5 569 Q212 610 245 639.5 Q278 669 323 685.5 Q368 702 426 702 Q475 702 516 694.5 Q557 687 592 668 L575 543 Q536 560 503 567 Q470 574 441 574 Q387 574 359 547 Q331 520 318 478 L526 478 L526 375 L304 375 L304 311 L526 311 L526 208 L320 208 Q348 116 441 116 Q473 116 504.5 123 Q536 130 575 147 L592 22 Q557 3 516 -4.5 Q475 -12 426 -12 Q369 -12 324.5 4 Q280 20 247 48.5 Q214 77 192.5 118 Q171 159 159 208 L51 208 Z " />
<glyph glyph-name="quotesinglbase" unicode="&#x201a;" horiz-adv-x="266" d="M25 -117 L79 159 L239 159 L141 -117 L25 -117 Z " />
<glyph glyph-name="florin" unicode="&#x192;" horiz-adv-x="633" d="M206 0 L206 290 L92 290 L92 393 L206 393 L206 498 Q206 549 221 591.5 Q236 634 265.5 664 Q295 694 338.5 710.5 Q382 727 438 727 Q477 727 509.5 720.5 Q542 714 573 699 L545 574 Q528 584 509.5 590.5 Q491 597 468 597 Q412 597 386.5 572.5 Q361 548 361 494 L361 393 L507 393 L507 290 L361 290 L361 0 L206 0 Z " />
<glyph glyph-name="quotedblbase" unicode="&#x201e;" horiz-adv-x="488" d="M25 -117 L79 159 L239 159 L141 -117 L25 -117 Z M247 -117 L301 159 L460 159 L363 -117 L247 -117 Z " />
<glyph glyph-name="ellipsis" unicode="&#x2026;" horiz-adv-x="1252" d="M927 -7 Q882 -7 858.5 19 Q835 45 835 76 Q835 111 858.5 137 Q882 163 927 163 Q973 163 995.5 137 Q1018 111 1018 76 Q1018 61 1012.5 46 Q1007 31 995.5 19 Q984 7 967 0 Q950 -7 927 -7 Z M546 -7 Q501 -7 477.5 19 Q454 45 454 76 Q454 111 477.5 137 Q501 163 546 163 Q592 163 614.5 137 Q637 111 637 76 Q637 61 631.5 46 Q626 31 615 19 Q604 7 586.5 0 Q569 -7 546 -7 Z M157 -7 Q112 -7 88.5 19 Q65 45 65 76 Q65 111 88.5 137 Q112 163 157 163 Q203 163 225.5 137 Q248 111 248 76 Q248 61 242.5 46 Q237 31 225.5 19 Q214 7 197 0 Q180 -7 157 -7 Z " />
<glyph glyph-name="dagger" unicode="&#x2020;" horiz-adv-x="565" d="M217 -140 Q215 -49 213 41 Q212 79 211 121 Q210 163 209.5 204.5 Q209 246 208 286 Q207 326 207 360 L18 360 L18 482 L207 482 Q208 514 209.5 552.5 Q211 591 213 626 L217 706 L348 706 Q351 664 353 624 Q355 589 356.5 551 Q358 513 358 482 L547 482 L547 360 L358 360 Q358 325 357.5 285 Q357 245 356.5 203.5 Q356 162 355 120 Q354 78 353 40 Q351 -50 348 -140 L217 -140 Z " />
<glyph glyph-name="daggerdbl" unicode="&#x2021;" horiz-adv-x="565" d="M216 -140 Q214 -102 212 -63 Q210 -30 209 7.5 Q208 45 207 75 L18 75 L18 197 L207 197 L207 367 L18 367 L18 489 L207 489 Q208 521 209 558.5 Q210 596 212 629 Q214 668 216 706 L348 706 Q351 667 353 628 Q355 595 356 557.5 Q357 520 357 489 L546 489 L546 367 L357 367 L357 197 L546 197 L546 75 L357 75 Q357 44 356 6 Q355 -32 353 -64 Q351 -102 348 -140 L216 -140 Z " />
<glyph glyph-name="circumflex" unicode="&#x2c6;" horiz-adv-x="500" d="M73 577 L184 749 L316 749 L427 577 L324 577 L250 670 L175 577 L73 577 Z " />
<glyph glyph-name="perthousand" unicode="&#x2030;" horiz-adv-x="1336" d="M1067 115 Q1083 80 1119 80 Q1154 80 1169 115 Q1184 150 1184 211 Q1184 275 1169 308 Q1154 341 1119 341 Q1083 341 1067.5 308 Q1052 275 1052 211 Q1052 150 1067 115 Z M1119 -9 Q1034 -9 986.5 47 Q939 103 939 211 Q939 322 986.5 376.5 Q1034 431 1119 431 Q1202 431 1249.5 376.5 Q1297 322 1297 211 Q1297 103 1249.5 47 Q1202 -9 1119 -9 Z M229 -24 L615 720 L705 720 L319 -24 L229 -24 Z M667 115 Q682 80 718 80 Q753 80 768 115 Q783 150 783 211 Q783 275 768 308 Q753 341 718 341 Q682 341 667 308 Q652 275 652 211 Q652 150 667 115 Z M718 -9 Q633 -9 586 47 Q539 103 539 211 Q539 322 586 376.5 Q633 431 718 431 Q802 431 849 376.5 Q896 322 896 211 Q896 103 849 47 Q802 -9 718 -9 Z M167 386 Q182 351 218 351 Q253 351 268.5 386 Q284 421 284 482 Q284 546 268.5 579 Q253 612 218 612 Q182 612 167 579 Q152 546 152 482 Q152 421 167 386 Z M218 262 Q133 262 86 318 Q39 374 39 482 Q39 593 86 647.5 Q133 702 218 702 Q302 702 349.5 647.5 Q397 593 397 482 Q397 374 349.5 318 Q302 262 218 262 Z " />
<glyph glyph-name="Scaron" unicode="&#x160;" horiz-adv-x="615" d="M173 206 Q185 161 219 137.5 Q253 114 312 114 Q358 114 388.5 132 Q419 150 419 186 Q419 205 409 218.5 Q399 232 382 242 Q365 252 342.5 259 Q320 266 295 273 L256 284 Q219 295 181.5 307.5 Q144 320 114 342 Q84 364 65 397 Q46 430 46 481 Q46 528 66 567.5 Q86 607 121.5 635 Q157 663 205 678.5 Q253 694 310 694 Q413 694 484 653 Q555 612 578 541 L429 491 Q416 529 381 546.5 Q346 564 306 564 Q263 564 239 548.5 Q215 533 215 504 Q215 485 223.5 472.5 Q232 460 249 450.5 Q266 441 291.5 433.5 Q317 426 350 418 L384 409 Q421 400 457.5 386 Q494 372 523 349 Q552 326 570 291.5 Q588 257 588 205 Q588 150 565.5 109 Q543 68 505 40 Q467 12 415.5 -2 Q364 -16 307 -16 Q183 -16 113.5 30 Q44 76 25 166 L173 206 Z M246 716 L135 888 L237 888 L312 795 L386 888 L489 888 L378 716 L246 716 Z " />
<glyph glyph-name="guilsinglleft" unicode="&#x2039;" horiz-adv-x="317" d="M140 77 L36 270 L140 463 L273 463 L170 270 L273 77 L140 77 Z " />
<glyph glyph-name="OE" unicode="&#x152;" horiz-adv-x="1005" d="M481 138 L481 540 L400 540 Q357 540 320 529 Q283 518 257 492.5 Q231 467 216 426.5 Q201 386 201 327 Q201 282 211 250.5 Q221 219 238 198 Q255 177 278 165 Q301 153 326 147 Q351 141 377 139.5 Q403 138 427 138 L481 138 Z M392 0 Q304 0 237.5 23 Q171 46 126.5 88.5 Q82 131 59.5 191.5 Q37 252 37 327 Q37 406 58.5 471 Q80 536 123 582 Q166 628 229 653 Q292 678 375 678 L950 678 L950 542 L640 542 L640 411 L917 411 L917 278 L640 278 L640 136 L962 136 L962 0 L392 0 Z " />
<glyph glyph-name="Zcaron" unicode="&#x17d;" horiz-adv-x="615" d="M34 0 L34 124 L348 536 L61 536 L61 678 L568 678 L568 556 L250 142 L588 142 L588 0 L34 0 Z M257 716 L146 888 L248 888 L323 795 L397 888 L500 888 L389 716 L257 716 Z " />
<glyph glyph-name="quoteleft" unicode="&#x2018;" horiz-adv-x="270" d="M35 430 L133 706 L249 706 L195 430 L35 430 Z " />
<glyph glyph-name="quoteright" unicode="&#x2019;" horiz-adv-x="270" d="M34 429 L88 705 L248 705 L150 429 L34 429 Z " />
<glyph glyph-name="quotedblleft" unicode="&#x201c;" horiz-adv-x="490" d="M34 430 L132 706 L248 706 L194 430 L34 430 Z M256 430 L353 706 L469 706 L415 430 L256 430 Z " />
<glyph glyph-name="quotedblright" unicode="&#x201d;" horiz-adv-x="490" d="M256 429 L310 705 L469 705 L372 429 L256 429 Z M34 429 L88 705 L248 705 L150 429 L34 429 Z " />
<glyph glyph-name="bullet" unicode="&#x2022;" horiz-adv-x="352" d="M119 130 Q92 142 72 162.5 Q52 183 40.5 210.5 Q29 238 29 270 Q29 302 40.5 329 Q52 356 72 376.5 Q92 397 118.5 408.5 Q145 420 176 420 Q207 420 233.5 408.5 Q260 397 280 376.5 Q300 356 311.5 329 Q323 302 323 270 Q323 239 311.5 211.5 Q300 184 280 163 Q260 142 233.5 130 Q207 118 176 118 Q146 118 119 130 Z " />
<glyph glyph-name="endash" unicode="&#x2013;" horiz-adv-x="626" d="M31 203 L31 317 L594 317 L594 203 L31 203 Z " />
<glyph glyph-name="emdash" unicode="&#x2014;" horiz-adv-x="1252" d="M30 203 L30 317 L1222 317 L1222 203 L30 203 Z " />
<glyph glyph-name="tilde" unicode="&#x2dc;" horiz-adv-x="500" d="M64 588 Q66 617 73 642.5 Q80 668 93.5 687 Q107 706 127 716.5 Q147 727 173 727 Q196 727 214.5 720.5 Q233 714 252 705 L285 689 Q299 682 307 680 Q315 678 325 678 Q342 678 352 690.5 Q362 703 367 726 L435 714 Q434 685 426.5 659.5 Q419 634 405.5 615.5 Q392 597 372 586 Q352 575 326 575 Q303 575 284.5 582 Q266 589 247 598 L214 614 Q200 620 192 622.5 Q184 625 174 625 Q157 625 147 612.5 Q137 600 132 577 L64 588 Z " />
<glyph glyph-name="trademark" unicode="&#x2122;" horiz-adv-x="944" d="M445 263 L445 678 L570 678 L675 512 L777 678 L905 678 L905 263 L794 263 L794 513 L702 362 L646 362 L554 511 L554 263 L445 263 Z M147 263 L147 576 L28 576 L28 678 L384 678 L384 576 L264 576 L264 263 L147 263 Z " />
<glyph glyph-name="scaron" unicode="&#x161;" horiz-adv-x="523" d="M153 166 Q163 132 191.5 113 Q220 94 259 94 Q291 94 316.5 106.5 Q342 119 342 145 Q342 168 319 179 Q296 190 265 198 L209 211 Q178 219 147.5 230.5 Q117 242 93 260 Q69 278 54 304.5 Q39 331 39 371 Q39 408 57 438.5 Q75 469 105 490.5 Q135 512 175 524 Q215 536 260 536 Q301 536 338 527.5 Q375 519 404.5 503.5 Q434 488 455 466 Q476 444 485 417 L358 376 Q347 405 319 417.5 Q291 430 262 430 Q230 430 212 418 Q194 406 194 388 Q194 364 217.5 354.5 Q241 345 281 335 L337 322 Q368 315 396.5 304 Q425 293 447.5 274.5 Q470 256 483.5 228.5 Q497 201 497 162 Q497 117 476.5 84 Q456 51 423 30 Q390 9 347.5 -1.5 Q305 -12 261 -12 Q166 -12 101.5 25 Q37 62 23 131 L153 166 Z M201 577 L90 749 L192 749 L267 656 L341 749 L444 749 L333 577 L201 577 Z " />
<glyph glyph-name="guilsinglright" unicode="&#x203a;" horiz-adv-x="317" d="M44 77 L147 270 L44 463 L177 463 L281 270 L177 77 L44 77 Z " />
<glyph glyph-name="oe" unicode="&#x153;" horiz-adv-x="937" d="M600 401 Q572 376 567 328 Q591 323 619 321 Q647 319 667 319 Q725 319 747 330 Q769 341 769 367 Q769 392 747.5 409 Q726 426 678 426 Q628 426 600 401 Z M209 156 Q222 133 244 119 Q266 105 299 105 Q332 105 354 119 Q376 133 389 156 Q402 179 407.5 208 Q413 237 413 266 Q413 293 407.5 320 Q402 347 388.5 369 Q375 391 353.5 405 Q332 419 299 419 Q266 419 244.5 405 Q223 391 209.5 369 Q196 347 190.5 320 Q185 293 185 266 Q185 237 190.5 208 Q196 179 209 156 Z M883 25 Q841 6 792 -3 Q743 -12 700 -12 Q556 -12 491 67 Q461 32 414 10 Q367 -12 299 -12 Q230 -12 179.5 10 Q129 32 96 69.5 Q63 107 47 157.5 Q31 208 31 266 Q31 321 47 370 Q63 419 96 456 Q129 493 179.5 514.5 Q230 536 299 536 Q368 536 414.5 514.5 Q461 493 491 457 Q520 493 566.5 514.5 Q613 536 680 536 Q736 536 778 522 Q820 508 848 484.5 Q876 461 889.5 430 Q903 399 903 364 Q903 318 889.5 287.5 Q876 257 849.5 239 Q823 221 784 213.5 Q745 206 693 206 Q654 206 623.5 209 Q593 212 565 218 Q571 164 609.5 138 Q648 112 716 112 Q748 112 790.5 120.5 Q833 129 865 143 L883 25 Z " />
<glyph glyph-name="zcaron" unicode="&#x17e;" horiz-adv-x="522" d="M34 0 L34 106 L278 401 L55 401 L55 524 L475 524 L475 413 L232 122 L486 122 L486 0 L34 0 Z M196 577 L85 749 L187 749 L262 656 L336 749 L439 749 L328 577 L196 577 Z " />
<glyph glyph-name="Ydieresis" unicode="&#x178;" horiz-adv-x="675" d="M256 0 L256 267 L7 678 L191 678 L343 420 L490 678 L667 678 L427 267 L427 0 L256 0 Z M238 726 Q201 726 182 747 Q163 768 163 794 Q163 823 182 844 Q201 865 238 865 Q275 865 293 844 Q311 823 311 794 Q311 768 293.5 747 Q276 726 238 726 Z M450 726 Q414 726 395 747 Q376 768 376 794 Q376 823 395 844 Q414 865 450 865 Q487 865 505.5 844 Q524 823 524 794 Q524 768 505.5 747 Q487 726 450 726 Z " />
<glyph glyph-name="exclamdown" unicode="&#xa1;" horiz-adv-x="316" d="M75 -188 L75 28 L106 295 L210 295 L240 28 L240 -188 L75 -188 Z M158 367 Q112 367 89.5 392.5 Q67 418 67 453 Q67 469 72.5 484 Q78 499 89.5 511 Q101 523 118 530 Q135 537 158 537 Q181 537 198 530 Q215 523 226.5 511 Q238 499 244 484 Q250 469 250 453 Q250 418 226.5 392.5 Q203 367 158 367 Z " />
<glyph glyph-name="cent" unicode="&#xa2;" horiz-adv-x="633" d="M273 400 Q244 383 230 347.5 Q216 312 216 259 Q216 152 273 122 L273 400 Z M273 -111 L273 -6 Q216 3 176 29 Q136 55 110.5 91.5 Q85 128 73.5 172.5 Q62 217 62 263 Q62 308 74 352 Q86 396 112 432.5 Q138 469 178 495 Q218 521 273 530 L273 635 L376 635 L376 531 Q449 520 501 476.5 Q553 433 564 364 L428 335 Q423 362 409 379 Q395 396 376 404 L376 120 Q396 129 410.5 147 Q425 165 430 194 L566 165 Q561 130 544.5 101 Q528 72 503 49.5 Q478 27 445.5 12.5 Q413 -2 376 -7 L376 -111 L273 -111 Z " />
<glyph glyph-name="sterling" unicode="&#xa3;" horiz-adv-x="633" d="M59 0 L59 109 Q111 125 146.5 156.5 Q182 188 182 238 Q182 250 179.5 261.5 Q177 273 170 290 L49 290 L49 393 L122 393 Q108 425 100.5 453 Q93 481 93 507 Q93 552 111.5 588.5 Q130 625 162 650.5 Q194 676 238 690 Q282 704 334 704 Q391 704 434.5 690 Q478 676 509 651.5 Q540 627 559 593.5 Q578 560 586 520 L449 489 Q440 532 412.5 553 Q385 574 345 574 Q295 574 272 551 Q249 528 249 486 Q249 466 258 440 Q267 414 276 393 L487 393 L487 290 L322 290 Q326 276 328 264 Q330 252 330 238 Q330 212 310 179.5 Q290 147 252 128 L584 128 L584 0 L59 0 Z " />
<glyph glyph-name="currency" unicode="&#xa4;" horiz-adv-x="560" d="M233 288 Q249 267 279 267 Q309 267 326.5 288.5 Q344 310 344 336 Q344 362 327 383.5 Q310 405 280 405 Q250 405 233.5 383.5 Q217 362 217 336 Q217 310 233 288 Z M115 86 L33 173 L130 269 Q114 298 114 336 Q114 372 129 402 L34 497 L117 586 L211 492 Q243 509 280 509 Q316 509 350 493 L445 587 L528 499 L432 405 Q449 373 449 336 Q449 299 432 268 L526 176 L442 88 L349 180 Q318 164 280 164 Q243 164 211 180 L115 86 Z " />
<glyph glyph-name="yen" unicode="&#xa5;" horiz-adv-x="626" d="M246 0 L246 208 L44 208 L44 311 L222 311 L188 375 L44 375 L44 476 L138 476 L18 690 L185 690 L324 412 L459 690 L620 690 L503 476 L603 476 L603 375 L455 375 L422 311 L603 311 L603 208 L401 208 L401 0 L246 0 Z " />
<glyph glyph-name="brokenbar" unicode="&#xa6;" horiz-adv-x="264" d="M72 401 L72 731 L191 731 L191 401 L72 401 Z M72 -183 L72 146 L191 146 L191 -183 L72 -183 Z " />
<glyph glyph-name="section" unicode="&#xa7;" horiz-adv-x="637" d="M397 182 Q420 197 428.5 215.5 Q437 234 437 247 Q437 275 411 296 Q385 317 334 342 L254 384 Q228 367 221 349 Q214 331 214 318 Q214 288 238.5 270 Q263 252 305 230 L397 182 Z M203 2 Q209 -15 222 -27.5 Q235 -40 252 -48.5 Q269 -57 289 -61.5 Q309 -66 330 -66 Q368 -66 390.5 -50.5 Q413 -35 413 -12 Q413 9 395.5 23.5 Q378 38 333 58 L232 107 Q201 122 171 138 Q141 154 117.5 175.5 Q94 197 79.5 226.5 Q65 256 65 297 Q65 334 82.5 374.5 Q100 415 144 447 Q94 490 94 555 Q94 592 110.5 624 Q127 656 157 680 Q187 704 230.5 717.5 Q274 731 328 731 Q420 731 483.5 694.5 Q547 658 568 595 L433 549 Q421 582 389.5 598 Q358 614 320 614 Q289 614 268 602.5 Q247 591 247 568 Q247 543 272 529.5 Q297 516 334 499 L417 459 Q448 444 478 427.5 Q508 411 531.5 389 Q555 367 569.5 337.5 Q584 308 584 267 Q584 235 568 194.5 Q552 154 507 117 Q566 69 566 5 Q566 -33 548.5 -67 Q531 -101 498.5 -126.5 Q466 -152 420 -167.5 Q374 -183 318 -183 Q272 -183 231 -173 Q190 -163 157.5 -145 Q125 -127 102 -101.5 Q79 -76 69 -45 L203 2 Z " />
<glyph glyph-name="dieresis" unicode="&#xa8;" horiz-adv-x="500" d="M144 587 Q107 587 88 608 Q69 629 69 655 Q69 684 88 705 Q107 726 144 726 Q181 726 199 705 Q217 684 217 655 Q217 629 199.5 608 Q182 587 144 587 Z M356 587 Q320 587 301 608 Q282 629 282 655 Q282 684 301 705 Q320 726 356 726 Q393 726 411.5 705 Q430 684 430 655 Q430 629 411.5 608 Q393 587 356 587 Z " />
<glyph glyph-name="copyright" unicode="&#xa9;" horiz-adv-x="803" d="M576 284 Q558 219 514.5 185.5 Q471 152 405 152 Q356 152 320 167 Q284 182 261 209.5 Q238 237 226.5 275 Q215 313 215 359 Q215 457 264.5 509.5 Q314 562 405 562 Q443 562 471 552.5 Q499 543 519.5 526.5 Q540 510 553 489 Q566 468 572 444 L474 423 Q468 442 451.5 457 Q435 472 404 472 Q380 472 364 462.5 Q348 453 338.5 437 Q329 421 325 400.5 Q321 380 321 359 Q321 334 325.5 312.5 Q330 291 340 275.5 Q350 260 367.5 251 Q385 242 410 242 Q439 242 457 258.5 Q475 275 483 304 L576 284 Z M196 153 Q232 113 283.5 90 Q335 67 401 67 Q467 67 519 90 Q571 113 607 153 Q643 193 662 245.5 Q681 298 681 358 Q681 417 662 469.5 Q643 522 607 561.5 Q571 601 519 624 Q467 647 401 647 Q335 647 283.5 624 Q232 601 196 561.5 Q160 522 141 469.5 Q122 417 122 358 Q122 298 141 245.5 Q160 193 196 153 Z M252 11 Q184 39 135 89 Q86 139 58.5 207.5 Q31 276 31 358 Q31 439 58.5 507 Q86 575 135 625 Q184 675 252 703 Q320 731 401 731 Q482 731 550 703 Q618 675 667 625 Q716 575 743.5 507 Q771 439 771 358 Q771 276 743.5 207.5 Q716 139 667 89 Q618 39 550 11 Q482 -17 401 -17 Q320 -17 252 11 Z " />
<glyph glyph-name="ordfeminine" unicode="&#xaa;" horiz-adv-x="396" d="M40 606 Q43 633 56 651 Q69 669 89.5 680.5 Q110 692 136.5 697 Q163 702 193 702 Q270 702 302.5 673.5 Q335 645 335 597 L335 479 Q335 454 352 454 L360 454 Q365 454 368 455 L380 377 Q364 372 349 369.5 Q334 367 311 367 Q284 367 267.5 375 Q251 383 240 404 Q222 385 190.5 377 Q159 369 133 369 Q86 369 57 393 Q28 417 28 462 Q28 486 36.5 505.5 Q45 525 67.5 539 Q90 553 128.5 561.5 Q167 570 227 573 L227 590 Q227 608 217.5 617 Q208 626 184 626 Q162 626 151 616.5 Q140 607 138 590 L40 606 Z M227 510 Q174 510 156 500.5 Q138 491 138 476 Q138 464 146.5 456.5 Q155 449 172 449 Q186 449 201 453 Q216 457 227 465 L227 510 Z " />
<glyph glyph-name="guillemotleft" unicode="&#xab;" horiz-adv-x="553" d="M376 77 L272 270 L376 463 L509 463 L406 270 L509 77 L376 77 Z M140 77 L36 270 L140 463 L273 463 L170 270 L273 77 L140 77 Z " />
<glyph glyph-name="logicalnot" unicode="&#xac;" horiz-adv-x="565" d="M28 283 L28 408 L538 408 L538 80 L419 80 L419 283 L28 283 Z " />
<glyph glyph-name="registered" unicode="&#xae;" horiz-adv-x="803" d="M341 375 L404 375 Q439 375 453.5 386 Q468 397 468 421 Q468 441 453.5 453 Q439 465 404 465 L341 465 L341 375 Z M235 162 L235 551 L418 551 Q487 551 528.5 522.5 Q570 494 570 430 Q570 387 548 356 Q526 325 482 315 L589 162 L468 162 L381 294 L341 294 L341 162 L235 162 Z M197 153 Q233 113 285 90 Q337 67 401 67 Q466 67 517 90 Q568 113 603.5 153 Q639 193 658 245.5 Q677 298 677 358 Q677 417 658 469.5 Q639 522 603.5 561.5 Q568 601 517 624 Q466 647 401 647 Q337 647 285 624 Q233 601 197 561.5 Q161 522 141.5 469.5 Q122 417 122 358 Q122 298 141.5 245.5 Q161 193 197 153 Z M253 11 Q186 39 136.5 89 Q87 139 59 207.5 Q31 276 31 358 Q31 439 59 507 Q87 575 136.5 625 Q186 675 253.5 703 Q321 731 401 731 Q481 731 549 703 Q617 675 666.5 625 Q716 575 743.5 507 Q771 439 771 358 Q771 276 743.5 207.5 Q716 139 666.5 89 Q617 39 549 11 Q481 -17 401 -17 Q321 -17 253 11 Z " />
<glyph glyph-name="macron" unicode="&#xaf;" horiz-adv-x="500" d="M90 621 L90 698 L410 698 L410 621 L90 621 Z " />
<glyph glyph-name="degree" unicode="&#xb0;" horiz-adv-x="510" d="M192 387 Q163 400 142 422 Q121 444 109 473 Q97 502 97 535 Q97 568 109 597.5 Q121 627 142 649 Q163 671 192 683.5 Q221 696 254 696 Q287 696 316 683.5 Q345 671 366.5 649 Q388 627 400 597.5 Q412 568 412 535 Q412 502 400 473 Q388 444 366.5 422 Q345 400 316 387.5 Q287 375 254 375 Q221 375 192 387 Z M199 480 Q219 456 254 456 Q288 456 307.5 480.5 Q327 505 327 535 Q327 565 307.5 590 Q288 615 254 615 Q219 615 199.5 590 Q180 565 180 535 Q180 505 199 480 Z " />
<glyph glyph-name="plusminus" unicode="&#xb1;" horiz-adv-x="565" d="M27 -27 L27 95 L537 95 L537 -27 L27 -27 Z M27 283 L27 407 L223 407 L223 565 L340 565 L340 407 L537 407 L537 283 L341 283 L341 126 L224 126 L224 283 L27 283 Z " />
<glyph glyph-name="twosuperior" unicode="&#xb2;" horiz-adv-x="460" d="M69 270 L69 356 L180 436 Q212 459 231.5 477 Q251 495 262.5 509.5 Q274 524 278 536.5 Q282 549 282 562 Q282 579 269.5 594 Q257 609 230 609 Q205 609 188.5 597.5 Q172 586 167 566 L65 585 Q72 616 88.5 638 Q105 660 128.5 674 Q152 688 180.5 694.5 Q209 701 239 701 Q272 701 300.5 691.5 Q329 682 350 664.5 Q371 647 383 622 Q395 597 395 566 Q395 516 368 480 Q341 444 286 409 L214 362 L406 362 L406 270 L69 270 Z " />
<glyph glyph-name="threesuperior" unicode="&#xb3;" horiz-adv-x="436" d="M153 402 Q159 382 175 366.5 Q191 351 221 351 Q255 351 271 365.5 Q287 380 287 402 Q287 430 264 439.5 Q241 449 199 449 L156 449 L156 530 L199 530 Q243 530 260.5 542 Q278 554 278 575 Q278 596 262.5 607.5 Q247 619 220 619 Q192 619 175.5 605.5 Q159 592 154 572 L55 592 Q62 623 78.5 644 Q95 665 118.5 678 Q142 691 170.5 696.5 Q199 702 229 702 Q264 702 294 694.5 Q324 687 345.5 673 Q367 659 379 638.5 Q391 618 391 592 Q391 554 369 525.5 Q347 497 307 492 Q348 487 373.5 460.5 Q399 434 399 392 Q399 362 385.5 338 Q372 314 348.5 297 Q325 280 293.5 271 Q262 262 225 262 Q194 262 165 267.5 Q136 273 113 286 Q90 299 73.5 320.5 Q57 342 50 373 L153 402 Z " />
<glyph glyph-name="acute" unicode="&#xb4;" horiz-adv-x="500" d="M140 577 L218 749 L360 749 L244 577 L140 577 Z " />
<glyph glyph-name="mu" unicode="&#xb5;" horiz-adv-x="605" d="M56 -200 L56 524 L206 524 L206 217 Q206 169 231 148 Q256 127 295 127 Q349 127 381 173 Q392 187 395 197 Q398 207 398 225 L398 524 L548 524 L548 122 Q548 109 552.5 98.5 Q557 88 572 88 Q583 88 593 93 L598 2 Q581 -3 560.5 -5.5 Q540 -8 520 -8 Q428 -8 413 81 Q392 40 356 14 Q320 -12 273 -12 Q253 -12 232.5 -6 Q212 0 201 13 L207 -200 L56 -200 Z " />
<glyph glyph-name="paragraph" unicode="&#xb6;" horiz-adv-x="622" d="M236 -91 Q238 -91 242.5 -91.5 Q247 -92 251 -92 Q323 -92 352 -56.5 Q381 -21 381 49 L381 149 L256 149 Q201 149 158.5 169 Q116 189 87 223.5 Q58 258 43.5 305.5 Q29 353 29 408 Q29 468 46.5 518 Q64 568 96.5 603.5 Q129 639 175 658.5 Q221 678 279 678 L614 678 L614 545 L526 545 L526 35 Q526 -89 461 -152 Q396 -215 277 -215 Q266 -215 254 -214.5 Q242 -214 231 -213 L236 -91 Z " />
<glyph glyph-name="periodcentered" unicode="&#xb7;" horiz-adv-x="241" d="M120 162 Q79 162 58.5 187.5 Q38 213 38 248 Q38 283 60 308 Q82 333 120 333 Q162 333 182.5 308 Q203 283 203 248 Q203 213 182.5 187.5 Q162 162 120 162 Z " />
<glyph glyph-name="cedilla" unicode="&#xb8;" horiz-adv-x="500" d="M157 -158 Q172 -164 190 -168.5 Q208 -173 226 -173 Q246 -173 263 -165.5 Q280 -158 280 -141 Q280 -124 265.5 -119 Q251 -114 237 -114 Q218 -114 200 -120 L180 -58 Q200 -50 220 -46.5 Q240 -43 259 -43 Q280 -43 299.5 -48 Q319 -53 334 -64.5 Q349 -76 358 -94 Q367 -112 367 -137 Q367 -164 356.5 -184 Q346 -204 328 -217 Q310 -230 286.5 -236 Q263 -242 238 -242 Q205 -242 180 -237.5 Q155 -233 132 -223 L157 -158 Z " />
<glyph glyph-name="onesuperior" unicode="&#xb9;" horiz-adv-x="372" d="M161 270 L161 582 L67 543 L36 632 L175 695 L274 695 L274 270 L161 270 Z " />
<glyph glyph-name="ordmasculine" unicode="&#xba;" horiz-adv-x="381" d="M140 475 Q153 450 186 450 Q219 450 231.5 475 Q244 500 244 537 Q244 570 231 595 Q218 620 186 620 Q154 620 141 595 Q128 570 128 537 Q128 501 140 475 Z M111 380 Q80 393 59.5 415.5 Q39 438 29 469.5 Q19 501 19 537 Q19 572 29 602 Q39 632 59.5 654 Q80 676 111.5 689 Q143 702 186 702 Q229 702 260.5 689 Q292 676 312.5 654 Q333 632 343 602 Q353 572 353 537 Q353 501 343 469.5 Q333 438 312.5 415.5 Q292 393 260.5 380 Q229 367 186 367 Q143 367 111 380 Z " />
<glyph glyph-name="guillemotright" unicode="&#xbb;" horiz-adv-x="553" d="M44 77 L147 270 L44 463 L177 463 L281 270 L177 77 L44 77 Z M280 77 L383 270 L280 463 L413 463 L517 270 L413 77 L280 77 Z " />
<glyph glyph-name="onequarter" unicode="&#xbc;" horiz-adv-x="944" d="M595 170 L700 170 L700 325 L595 170 Z M507 83 L507 170 L681 425 L811 425 L811 170 L878 170 L878 83 L811 83 L811 0 L700 0 L700 83 L507 83 Z M219 -24 L605 720 L695 720 L310 -24 L219 -24 Z M191 270 L191 582 L97 543 L65 632 L204 695 L304 695 L304 270 L191 270 Z " />
<glyph glyph-name="onehalf" unicode="&#xbd;" horiz-adv-x="957" d="M554 0 L554 86 L665 166 Q697 189 717 207 Q737 225 748.5 239.5 Q760 254 764 266.5 Q768 279 768 292 Q768 309 755.5 324 Q743 339 716 339 Q691 339 674.5 327.5 Q658 316 653 296 L551 315 Q558 346 574.5 368 Q591 390 614.5 404 Q638 418 666.5 424.5 Q695 431 725 431 Q757 431 785.5 421.5 Q814 412 835 394.5 Q856 377 868.5 352 Q881 327 881 296 Q881 246 854 210 Q827 174 772 139 L700 92 L892 92 L892 0 L554 0 Z M177 270 L177 582 L84 543 L52 632 L191 695 L291 695 L291 270 L177 270 Z M206 -24 L592 720 L682 720 L297 -24 L206 -24 Z " />
<glyph glyph-name="threequarters" unicode="&#xbe;" horiz-adv-x="972" d="M153 402 Q159 382 175 366.5 Q191 351 222 351 Q249 351 268 363.5 Q287 376 287 402 Q287 430 264.5 439.5 Q242 449 200 449 L156 449 L156 530 L199 530 Q242 530 260 541 Q278 552 278 575 Q278 596 262.5 607.5 Q247 619 221 619 Q193 619 176 605.5 Q159 592 154 572 L56 592 Q62 623 78.5 644 Q95 665 118.5 678 Q142 691 170.5 696.5 Q199 702 230 702 Q265 702 294.5 694.5 Q324 687 345.5 673 Q367 659 379 638.5 Q391 618 391 592 Q391 554 369 525.5 Q347 497 307 492 Q348 487 374 460.5 Q400 434 400 392 Q400 362 386.5 338 Q373 314 349.5 297 Q326 280 294 271 Q262 262 225 262 Q194 262 165 267.5 Q136 273 113 286 Q90 299 73.5 320.5 Q57 342 50 373 L153 402 Z M652 170 L757 170 L757 325 L652 170 Z M561 83 L561 170 L738 425 L867 425 L867 170 L935 170 L935 83 L867 83 L867 0 L757 0 L757 83 L561 83 Z M276 -24 L662 720 L752 720 L366 -24 L276 -24 Z " />
<glyph glyph-name="questiondown" unicode="&#xbf;" horiz-adv-x="579" d="M301 366 Q255 366 232.5 392 Q210 418 210 453 Q210 468 215.5 483 Q221 498 232.5 510 Q244 522 261 529 Q278 536 301 536 Q324 536 341 529 Q358 522 369.5 510 Q381 498 387 483 Q393 468 393 453 Q393 418 369.5 392 Q346 366 301 366 Z M540 -14 Q533 -58 511.5 -93 Q490 -128 456.5 -152 Q423 -176 379.5 -189 Q336 -202 285 -202 Q231 -202 187 -188 Q143 -174 112.5 -149 Q82 -124 65.5 -88.5 Q49 -53 49 -9 Q49 30 60.5 59.5 Q72 89 90 113 Q108 137 130 156 Q152 175 173 191 Q198 211 216 235.5 Q234 260 234 298 L378 298 Q378 262 369.5 234 Q361 206 347 184.5 Q333 163 315.5 146 Q298 129 280 115 Q250 91 226.5 66.5 Q203 42 203 6 Q203 -27 225.5 -50 Q248 -73 291 -73 Q328 -73 357.5 -52.5 Q387 -32 392 16 L540 -14 Z " />
<glyph glyph-name="Agrave" unicode="&#xc0;" horiz-adv-x="709" d="M261 265 L444 265 L352 510 L261 265 Z M5 0 L265 678 L444 678 L703 0 L533 0 L484 135 L221 135 L172 0 L5 0 Z M300 716 L185 888 L327 888 L405 716 L300 716 Z " />
<glyph glyph-name="Aacute" unicode="&#xc1;" horiz-adv-x="709" d="M261 265 L444 265 L352 510 L261 265 Z M5 0 L265 678 L444 678 L703 0 L533 0 L484 135 L221 135 L172 0 L5 0 Z M300 716 L378 888 L520 888 L404 716 L300 716 Z " />
<glyph glyph-name="Acircumflex" unicode="&#xc2;" horiz-adv-x="709" d="M261 265 L444 265 L352 510 L261 265 Z M5 0 L265 678 L444 678 L703 0 L533 0 L484 135 L221 135 L172 0 L5 0 Z M175 716 L286 888 L418 888 L529 716 L426 716 L352 809 L277 716 L175 716 Z " />
<glyph glyph-name="Atilde" unicode="&#xc3;" horiz-adv-x="709" d="M261 265 L444 265 L352 510 L261 265 Z M5 0 L265 678 L444 678 L703 0 L533 0 L484 135 L221 135 L172 0 L5 0 Z M167 727 Q169 756 176 781.5 Q183 807 196.5 826 Q210 845 230 855.5 Q250 866 276 866 Q299 866 317.5 859.5 Q336 853 355 844 L388 828 Q402 821 410 819 Q418 817 428 817 Q445 817 455 829.5 Q465 842 470 865 L538 853 Q537 824 529.5 798.5 Q522 773 508.5 754.5 Q495 736 475 725 Q455 714 429 714 Q406 714 387.5 721 Q369 728 350 737 L317 753 Q303 759 295 761.5 Q287 764 277 764 Q260 764 250 751.5 Q240 739 235 716 L167 727 Z " />
<glyph glyph-name="Adieresis" unicode="&#xc4;" horiz-adv-x="709" d="M261 265 L444 265 L352 510 L261 265 Z M5 0 L265 678 L444 678 L703 0 L533 0 L484 135 L221 135 L172 0 L5 0 Z M247 726 Q210 726 191 747 Q172 768 172 794 Q172 823 191 844 Q210 865 247 865 Q284 865 302 844 Q320 823 320 794 Q320 768 302.5 747 Q285 726 247 726 Z M459 726 Q423 726 404 747 Q385 768 385 794 Q385 823 404 844 Q423 865 459 865 Q496 865 514.5 844 Q533 823 533 794 Q533 768 514.5 747 Q496 726 459 726 Z " />
<glyph glyph-name="Aring" unicode="&#xc5;" horiz-adv-x="709" d="M261 265 L444 265 L352 510 L261 265 Z M5 0 L265 678 L444 678 L703 0 L533 0 L484 135 L221 135 L172 0 L5 0 Z M245 735 Q208 766 208 816 Q208 865 245.5 895.5 Q283 926 352 926 Q421 926 458.5 895.5 Q496 865 496 816 Q496 766 458.5 735.5 Q421 705 352 705 Q283 705 245 735 Z M308 816 Q308 794 321.5 785 Q335 776 352 776 Q369 776 382.5 785 Q396 794 396 816 Q396 838 383 846.5 Q370 855 352 855 Q335 855 321.5 846.5 Q308 838 308 816 Z " />
<glyph glyph-name="AE" unicode="&#xc6;" horiz-adv-x="1006" d="M341 349 L483 349 L483 542 L437 542 L341 349 Z M-2 0 L327 678 L952 678 L952 542 L642 542 L642 392 L919 392 L919 259 L642 259 L642 136 L963 136 L963 0 L483 0 L483 216 L275 216 L168 0 L-2 0 Z " />
<glyph glyph-name="Ccedilla" unicode="&#xc7;" horiz-adv-x="675" d="M648 207 Q616 94 540.5 39 Q465 -16 355 -16 Q276 -16 216.5 9 Q157 34 117 81 Q77 128 57 194.5 Q37 261 37 344 Q37 430 61 495.5 Q85 561 128.5 605 Q172 649 231.5 671.5 Q291 694 361 694 Q420 694 466.5 679 Q513 664 548 638 Q583 612 606 575.5 Q629 539 640 495 L491 462 Q477 506 443.5 531.5 Q410 557 360 557 Q322 557 292.5 541.5 Q263 526 243 498.5 Q223 471 213 431.5 Q203 392 203 344 Q203 235 244 178 Q285 121 361 121 Q412 121 449.5 149.5 Q487 178 504 239 L648 207 Z M249 -158 Q264 -164 282 -168.5 Q300 -173 318 -173 Q338 -173 355 -165.5 Q372 -158 372 -141 Q372 -124 357.5 -119 Q343 -114 329 -114 Q310 -114 292 -120 L272 -58 Q292 -50 312 -46.5 Q332 -43 351 -43 Q372 -43 391.5 -48 Q411 -53 426 -64.5 Q441 -76 450 -94 Q459 -112 459 -137 Q459 -164 448.5 -184 Q438 -204 420 -217 Q402 -230 378.5 -236 Q355 -242 330 -242 Q297 -242 272 -237.5 Q247 -233 224 -223 L249 -158 Z " />
<glyph glyph-name="Egrave" unicode="&#xc8;" horiz-adv-x="594" d="M70 0 L70 678 L539 678 L539 542 L229 542 L229 411 L506 411 L506 278 L229 278 L229 136 L551 136 L551 0 L70 0 Z M253 716 L138 888 L280 888 L358 716 L253 716 Z " />
<glyph glyph-name="Eacute" unicode="&#xc9;" horiz-adv-x="594" d="M70 0 L70 678 L539 678 L539 542 L229 542 L229 411 L506 411 L506 278 L229 278 L229 136 L551 136 L551 0 L70 0 Z M252 716 L330 888 L472 888 L356 716 L252 716 Z " />
<glyph glyph-name="Ecircumflex" unicode="&#xca;" horiz-adv-x="594" d="M70 0 L70 678 L539 678 L539 542 L229 542 L229 411 L506 411 L506 278 L229 278 L229 136 L551 136 L551 0 L70 0 Z M127 716 L238 888 L370 888 L481 716 L378 716 L304 809 L229 716 L127 716 Z " />
<glyph glyph-name="Edieresis" unicode="&#xcb;" horiz-adv-x="594" d="M70 0 L70 678 L539 678 L539 542 L229 542 L229 411 L506 411 L506 278 L229 278 L229 136 L551 136 L551 0 L70 0 Z M199 726 Q162 726 143 747 Q124 768 124 794 Q124 823 143 844 Q162 865 199 865 Q236 865 254 844 Q272 823 272 794 Q272 768 254.5 747 Q237 726 199 726 Z M411 726 Q375 726 356 747 Q337 768 337 794 Q337 823 356 844 Q375 865 411 865 Q448 865 466.5 844 Q485 823 485 794 Q485 768 466.5 747 Q448 726 411 726 Z " />
<glyph glyph-name="Igrave" unicode="&#xcc;" horiz-adv-x="300" d="M70 0 L70 678 L229 678 L229 0 L70 0 Z M98 716 L-17 888 L125 888 L203 716 L98 716 Z " />
<glyph glyph-name="Iacute" unicode="&#xcd;" horiz-adv-x="300" d="M70 0 L70 678 L229 678 L229 0 L70 0 Z M98 716 L176 888 L318 888 L202 716 L98 716 Z " />
<glyph glyph-name="Icircumflex" unicode="&#xce;" horiz-adv-x="300" d="M70 0 L70 678 L229 678 L229 0 L70 0 Z M-27 716 L84 888 L216 888 L327 716 L224 716 L150 809 L75 716 L-27 716 Z " />
<glyph glyph-name="Idieresis" unicode="&#xcf;" horiz-adv-x="300" d="M70 0 L70 678 L229 678 L229 0 L70 0 Z M45 726 Q8 726 -11 747 Q-30 768 -30 794 Q-30 823 -11 844 Q8 865 45 865 Q82 865 100 844 Q118 823 118 794 Q118 768 100.5 747 Q83 726 45 726 Z M257 726 Q221 726 202 747 Q183 768 183 794 Q183 823 202 844 Q221 865 257 865 Q294 865 312.5 844 Q331 823 331 794 Q331 768 312.5 747 Q294 726 257 726 Z " />
<glyph glyph-name="Eth" unicode="&#xd0;" horiz-adv-x="721" d="M229 138 L318 138 Q363 138 399.5 149 Q436 160 462.5 185.5 Q489 211 503 251.5 Q517 292 517 351 Q517 419 495 456.5 Q473 494 440 513 Q407 532 367.5 536 Q328 540 292 540 L229 540 L229 402 L381 402 L381 290 L229 290 L229 138 Z M70 0 L70 290 L11 290 L11 402 L70 402 L70 678 L327 678 Q415 678 481.5 655 Q548 632 592.5 589.5 Q637 547 659.5 486.5 Q682 426 682 351 Q682 272 660 207 Q638 142 595.5 96 Q553 50 489.5 25 Q426 0 343 0 L70 0 Z " />
<glyph glyph-name="Ntilde" unicode="&#xd1;" horiz-adv-x="745" d="M70 0 L70 678 L238 678 L524 266 L524 678 L675 678 L675 0 L519 0 L221 422 L221 0 L70 0 Z M186 727 Q188 756 195 781.5 Q202 807 215.5 826 Q229 845 249 855.5 Q269 866 295 866 Q318 866 336.5 859.5 Q355 853 374 844 L407 828 Q421 821 429 819 Q437 817 447 817 Q464 817 474 829.5 Q484 842 489 865 L557 853 Q556 824 548.5 798.5 Q541 773 527.5 754.5 Q514 736 494 725 Q474 714 448 714 Q425 714 406.5 721 Q388 728 369 737 L336 753 Q322 759 314 761.5 Q306 764 296 764 Q279 764 269 751.5 Q259 739 254 716 L186 727 Z " />
<glyph glyph-name="Ograve" unicode="&#xd2;" horiz-adv-x="746" d="M254 173 Q277 147 308 134.5 Q339 122 373 122 Q407 122 438 134 Q469 146 492.5 172.5 Q516 199 530 240 Q544 281 544 339 Q544 398 530 439 Q516 480 492.5 506 Q469 532 438 544 Q407 556 373 556 Q339 556 308 544 Q277 532 254 506 Q231 480 217 439 Q203 398 203 339 Q203 282 217 240.5 Q231 199 254 173 Z M238 9 Q176 34 131.5 80 Q87 126 62 192 Q37 258 37 339 Q37 422 61 487.5 Q85 553 128.5 599 Q172 645 234.5 669.5 Q297 694 373 694 Q450 694 512 669.5 Q574 645 618 599 Q662 553 685.5 487.5 Q709 422 709 339 Q709 258 684 192 Q659 126 614.5 80 Q570 34 508.5 9 Q447 -16 373 -16 Q300 -16 238 9 Z M321 716 L206 888 L348 888 L426 716 L321 716 Z " />
<glyph glyph-name="Oacute" unicode="&#xd3;" horiz-adv-x="746" d="M254 173 Q277 147 308 134.5 Q339 122 373 122 Q407 122 438 134 Q469 146 492.5 172.5 Q516 199 530 240 Q544 281 544 339 Q544 398 530 439 Q516 480 492.5 506 Q469 532 438 544 Q407 556 373 556 Q339 556 308 544 Q277 532 254 506 Q231 480 217 439 Q203 398 203 339 Q203 282 217 240.5 Q231 199 254 173 Z M238 9 Q176 34 131.5 80 Q87 126 62 192 Q37 258 37 339 Q37 422 61 487.5 Q85 553 128.5 599 Q172 645 234.5 669.5 Q297 694 373 694 Q450 694 512 669.5 Q574 645 618 599 Q662 553 685.5 487.5 Q709 422 709 339 Q709 258 684 192 Q659 126 614.5 80 Q570 34 508.5 9 Q447 -16 373 -16 Q300 -16 238 9 Z M321 716 L399 888 L541 888 L425 716 L321 716 Z " />
<glyph glyph-name="Ocircumflex" unicode="&#xd4;" horiz-adv-x="746" d="M254 173 Q277 147 308 134.5 Q339 122 373 122 Q407 122 438 134 Q469 146 492.5 172.5 Q516 199 530 240 Q544 281 544 339 Q544 398 530 439 Q516 480 492.5 506 Q469 532 438 544 Q407 556 373 556 Q339 556 308 544 Q277 532 254 506 Q231 480 217 439 Q203 398 203 339 Q203 282 217 240.5 Q231 199 254 173 Z M238 9 Q176 34 131.5 80 Q87 126 62 192 Q37 258 37 339 Q37 422 61 487.5 Q85 553 128.5 599 Q172 645 234.5 669.5 Q297 694 373 694 Q450 694 512 669.5 Q574 645 618 599 Q662 553 685.5 487.5 Q709 422 709 339 Q709 258 684 192 Q659 126 614.5 80 Q570 34 508.5 9 Q447 -16 373 -16 Q300 -16 238 9 Z M195 716 L306 888 L438 888 L549 716 L446 716 L372 809 L297 716 L195 716 Z " />
<glyph glyph-name="Otilde" unicode="&#xd5;" horiz-adv-x="746" d="M254 173 Q277 147 308 134.5 Q339 122 373 122 Q407 122 438 134 Q469 146 492.5 172.5 Q516 199 530 240 Q544 281 544 339 Q544 398 530 439 Q516 480 492.5 506 Q469 532 438 544 Q407 556 373 556 Q339 556 308 544 Q277 532 254 506 Q231 480 217 439 Q203 398 203 339 Q203 282 217 240.5 Q231 199 254 173 Z M238 9 Q176 34 131.5 80 Q87 126 62 192 Q37 258 37 339 Q37 422 61 487.5 Q85 553 128.5 599 Q172 645 234.5 669.5 Q297 694 373 694 Q450 694 512 669.5 Q574 645 618 599 Q662 553 685.5 487.5 Q709 422 709 339 Q709 258 684 192 Q659 126 614.5 80 Q570 34 508.5 9 Q447 -16 373 -16 Q300 -16 238 9 Z M187 727 Q189 756 196 781.5 Q203 807 216.5 826 Q230 845 250 855.5 Q270 866 296 866 Q319 866 337.5 859.5 Q356 853 375 844 L408 828 Q422 821 430 819 Q438 817 448 817 Q465 817 475 829.5 Q485 842 490 865 L558 853 Q557 824 549.5 798.5 Q542 773 528.5 754.5 Q515 736 495 725 Q475 714 449 714 Q426 714 407.5 721 Q389 728 370 737 L337 753 Q323 759 315 761.5 Q307 764 297 764 Q280 764 270 751.5 Q260 739 255 716 L187 727 Z " />
<glyph glyph-name="Odieresis" unicode="&#xd6;" horiz-adv-x="746" d="M254 173 Q277 147 308 134.5 Q339 122 373 122 Q407 122 438 134 Q469 146 492.5 172.5 Q516 199 530 240 Q544 281 544 339 Q544 398 530 439 Q516 480 492.5 506 Q469 532 438 544 Q407 556 373 556 Q339 556 308 544 Q277 532 254 506 Q231 480 217 439 Q203 398 203 339 Q203 282 217 240.5 Q231 199 254 173 Z M238 9 Q176 34 131.5 80 Q87 126 62 192 Q37 258 37 339 Q37 422 61 487.5 Q85 553 128.5 599 Q172 645 234.5 669.5 Q297 694 373 694 Q450 694 512 669.5 Q574 645 618 599 Q662 553 685.5 487.5 Q709 422 709 339 Q709 258 684 192 Q659 126 614.5 80 Q570 34 508.5 9 Q447 -16 373 -16 Q300 -16 238 9 Z M267 726 Q230 726 211 747 Q192 768 192 794 Q192 823 211 844 Q230 865 267 865 Q304 865 322 844 Q340 823 340 794 Q340 768 322.5 747 Q305 726 267 726 Z M479 726 Q443 726 424 747 Q405 768 405 794 Q405 823 424 844 Q443 865 479 865 Q516 865 534.5 844 Q553 823 553 794 Q553 768 534.5 747 Q516 726 479 726 Z " />
<glyph glyph-name="multiply" unicode="&#xd7;" horiz-adv-x="565" d="M118 94 L35 182 L199 344 L36 505 L120 595 L283 433 L447 596 L530 507 L366 345 L529 185 L444 96 L282 257 L118 94 Z " />
<glyph glyph-name="Oslash" unicode="&#xd8;" horiz-adv-x="746" d="M435 545 Q420 551 404.5 553.5 Q389 556 373 556 Q339 556 308 544 Q277 532 254 506 Q231 480 217 439 Q203 398 203 339 Q203 265 226 216 L435 545 Z M310 133 Q324 127 340 124.5 Q356 122 373 122 Q407 122 438 134 Q469 146 492.5 172.5 Q516 199 530 240 Q544 281 544 339 Q544 378 537.5 409 Q531 440 520 464 L310 133 Z M65 -38 L136 75 Q89 122 63 188 Q37 254 37 339 Q37 422 61 487.5 Q85 553 128.5 599 Q172 645 234.5 669.5 Q297 694 373 694 Q411 694 446 687.5 Q481 681 513 669 L543 716 L679 716 L610 607 Q658 560 683.5 493 Q709 426 709 339 Q709 258 684 192 Q659 126 614.5 80 Q570 34 508.5 9 Q447 -16 373 -16 Q334 -16 299 -9 Q264 -2 232 11 L201 -38 L65 -38 Z " />
<glyph glyph-name="Ugrave" unicode="&#xd9;" horiz-adv-x="711" d="M226 255 Q226 218 236 193 Q246 168 263.5 152 Q281 136 304.5 129 Q328 122 355 122 Q382 122 405.5 129 Q429 136 446.5 152 Q464 168 474 193 Q484 218 484 255 L484 678 L643 678 L643 251 Q643 187 623 137.5 Q603 88 566 54 Q529 20 475.5 2.5 Q422 -15 355 -15 Q220 -15 144 54 Q68 123 68 251 L68 678 L226 678 L226 255 Z M302 716 L187 888 L329 888 L407 716 L302 716 Z " />
<glyph glyph-name="Uacute" unicode="&#xda;" horiz-adv-x="711" d="M226 255 Q226 218 236 193 Q246 168 263.5 152 Q281 136 304.5 129 Q328 122 355 122 Q382 122 405.5 129 Q429 136 446.5 152 Q464 168 474 193 Q484 218 484 255 L484 678 L643 678 L643 251 Q643 187 623 137.5 Q603 88 566 54 Q529 20 475.5 2.5 Q422 -15 355 -15 Q220 -15 144 54 Q68 123 68 251 L68 678 L226 678 L226 255 Z M302 716 L380 888 L522 888 L406 716 L302 716 Z " />
<glyph glyph-name="Ucircumflex" unicode="&#xdb;" horiz-adv-x="711" d="M226 255 Q226 218 236 193 Q246 168 263.5 152 Q281 136 304.5 129 Q328 122 355 122 Q382 122 405.5 129 Q429 136 446.5 152 Q464 168 474 193 Q484 218 484 255 L484 678 L643 678 L643 251 Q643 187 623 137.5 Q603 88 566 54 Q529 20 475.5 2.5 Q422 -15 355 -15 Q220 -15 144 54 Q68 123 68 251 L68 678 L226 678 L226 255 Z M177 716 L288 888 L420 888 L531 716 L428 716 L354 809 L279 716 L177 716 Z " />
<glyph glyph-name="Udieresis" unicode="&#xdc;" horiz-adv-x="711" d="M226 255 Q226 218 236 193 Q246 168 263.5 152 Q281 136 304.5 129 Q328 122 355 122 Q382 122 405.5 129 Q429 136 446.5 152 Q464 168 474 193 Q484 218 484 255 L484 678 L643 678 L643 251 Q643 187 623 137.5 Q603 88 566 54 Q529 20 475.5 2.5 Q422 -15 355 -15 Q220 -15 144 54 Q68 123 68 251 L68 678 L226 678 L226 255 Z M249 726 Q212 726 193 747 Q174 768 174 794 Q174 823 193 844 Q212 865 249 865 Q286 865 304 844 Q322 823 322 794 Q322 768 304.5 747 Q287 726 249 726 Z M461 726 Q425 726 406 747 Q387 768 387 794 Q387 823 406 844 Q425 865 461 865 Q498 865 516.5 844 Q535 823 535 794 Q535 768 516.5 747 Q498 726 461 726 Z " />
<glyph glyph-name="Yacute" unicode="&#xdd;" horiz-adv-x="675" d="M256 0 L256 267 L7 678 L191 678 L343 420 L490 678 L667 678 L427 267 L427 0 L256 0 Z M292 716 L370 888 L512 888 L396 716 L292 716 Z " />
<glyph glyph-name="Thorn" unicode="&#xde;" horiz-adv-x="654" d="M229 249 L341 249 Q376 249 399.5 258.5 Q423 268 437 283 Q451 298 456.5 317 Q462 336 462 354 Q462 369 458 387 Q454 405 441.5 421 Q429 437 405.5 447.5 Q382 458 343 458 L229 458 L229 249 Z M70 0 L70 678 L229 678 L229 595 L372 595 Q408 595 452 586 Q496 577 535 551.5 Q574 526 600.5 480.5 Q627 435 627 361 Q627 306 608.5 261 Q590 216 555.5 184 Q521 152 472.5 134.5 Q424 117 363 117 L229 117 L229 0 L70 0 Z " />
<glyph glyph-name="germandbls" unicode="&#xdf;" horiz-adv-x="734" d="M61 0 L61 559 Q61 607 75.5 639.5 Q90 672 123 692.5 Q156 713 210 722 Q264 731 342 731 Q394 731 444 724 Q494 717 533.5 699 Q573 681 597 650 Q621 619 621 570 Q621 542 614 520.5 Q607 499 591.5 482 Q576 465 550.5 450.5 Q525 436 487 422 Q467 414 454.5 406.5 Q442 399 442 385 Q442 366 460.5 358 Q479 350 512 339 L558 325 Q587 316 614.5 303.5 Q642 291 663.5 273 Q685 255 698 228.5 Q711 202 711 164 Q711 118 691 85 Q671 52 639 30.5 Q607 9 566 -1.5 Q525 -12 484 -12 Q390 -12 333.5 20.5 Q277 53 262 116 L390 152 Q401 123 422 108.5 Q443 94 479 94 Q508 94 532 107 Q556 120 556 147 Q556 170 534 182 Q512 194 477 205 L446 216 Q415 227 386 238 Q357 249 335 265.5 Q313 282 300 306.5 Q287 331 287 368 Q287 404 300.5 428 Q314 452 333 468 Q352 484 372 493.5 Q392 503 405 508 Q444 524 455 536.5 Q466 549 466 566 Q466 591 437.5 603.5 Q409 616 342 616 Q304 616 278.5 613 Q253 610 238 602 Q223 594 217 581 Q211 568 211 547 L211 0 L61 0 Z " />
<glyph glyph-name="agrave" unicode="&#xe0;" horiz-adv-x="589" d="M361 222 Q307 222 273.5 218 Q240 214 221 206 Q202 198 195.5 186.5 Q189 175 189 159 Q189 133 206 119.5 Q223 106 255 106 Q283 106 312 115.5 Q341 125 361 142 L361 222 Z M55 374 Q59 418 79.5 448.5 Q100 479 130.5 498.5 Q161 518 199.5 527 Q238 536 279 536 Q342 536 386 521 Q430 506 457.5 479.5 Q485 453 497.5 417 Q510 381 510 340 L510 151 Q510 131 516.5 119.5 Q523 108 540 108 Q548 108 555 109 Q562 110 569 112 L584 2 Q562 -4 540 -8 Q518 -12 486 -12 Q444 -12 418.5 2 Q393 16 379 50 Q364 35 344 24 Q324 13 300.5 5.5 Q277 -2 253 -6 Q229 -10 206 -10 Q169 -10 137.5 -0.5 Q106 9 83.5 28.5 Q61 48 48 76.5 Q35 105 35 142 Q35 183 49.5 216 Q64 249 100.5 273 Q137 297 200.5 310.5 Q264 324 361 325 L361 346 Q361 378 343 397.5 Q325 417 280 417 Q236 417 215 401.5 Q194 386 190 352 L55 374 Z M235 577 L120 749 L262 749 L340 577 L235 577 Z " />
<glyph glyph-name="aacute" unicode="&#xe1;" horiz-adv-x="589" d="M361 222 Q307 222 273.5 218 Q240 214 221 206 Q202 198 195.5 186.5 Q189 175 189 159 Q189 133 206 119.5 Q223 106 255 106 Q283 106 312 115.5 Q341 125 361 142 L361 222 Z M55 374 Q59 418 79.5 448.5 Q100 479 130.5 498.5 Q161 518 199.5 527 Q238 536 279 536 Q342 536 386 521 Q430 506 457.5 479.5 Q485 453 497.5 417 Q510 381 510 340 L510 151 Q510 131 516.5 119.5 Q523 108 540 108 Q548 108 555 109 Q562 110 569 112 L584 2 Q562 -4 540 -8 Q518 -12 486 -12 Q444 -12 418.5 2 Q393 16 379 50 Q364 35 344 24 Q324 13 300.5 5.5 Q277 -2 253 -6 Q229 -10 206 -10 Q169 -10 137.5 -0.5 Q106 9 83.5 28.5 Q61 48 48 76.5 Q35 105 35 142 Q35 183 49.5 216 Q64 249 100.5 273 Q137 297 200.5 310.5 Q264 324 361 325 L361 346 Q361 378 343 397.5 Q325 417 280 417 Q236 417 215 401.5 Q194 386 190 352 L55 374 Z M234 577 L312 749 L454 749 L338 577 L234 577 Z " />
<glyph glyph-name="acircumflex" unicode="&#xe2;" horiz-adv-x="589" d="M361 222 Q307 222 273.5 218 Q240 214 221 206 Q202 198 195.5 186.5 Q189 175 189 159 Q189 133 206 119.5 Q223 106 255 106 Q283 106 312 115.5 Q341 125 361 142 L361 222 Z M55 374 Q59 418 79.5 448.5 Q100 479 130.5 498.5 Q161 518 199.5 527 Q238 536 279 536 Q342 536 386 521 Q430 506 457.5 479.5 Q485 453 497.5 417 Q510 381 510 340 L510 151 Q510 131 516.5 119.5 Q523 108 540 108 Q548 108 555 109 Q562 110 569 112 L584 2 Q562 -4 540 -8 Q518 -12 486 -12 Q444 -12 418.5 2 Q393 16 379 50 Q364 35 344 24 Q324 13 300.5 5.5 Q277 -2 253 -6 Q229 -10 206 -10 Q169 -10 137.5 -0.5 Q106 9 83.5 28.5 Q61 48 48 76.5 Q35 105 35 142 Q35 183 49.5 216 Q64 249 100.5 273 Q137 297 200.5 310.5 Q264 324 361 325 L361 346 Q361 378 343 397.5 Q325 417 280 417 Q236 417 215 401.5 Q194 386 190 352 L55 374 Z M109 577 L220 749 L352 749 L463 577 L360 577 L286 670 L211 577 L109 577 Z " />
<glyph glyph-name="atilde" unicode="&#xe3;" horiz-adv-x="589" d="M361 222 Q307 222 273.5 218 Q240 214 221 206 Q202 198 195.5 186.5 Q189 175 189 159 Q189 133 206 119.5 Q223 106 255 106 Q283 106 312 115.5 Q341 125 361 142 L361 222 Z M55 374 Q59 418 79.5 448.5 Q100 479 130.5 498.5 Q161 518 199.5 527 Q238 536 279 536 Q342 536 386 521 Q430 506 457.5 479.5 Q485 453 497.5 417 Q510 381 510 340 L510 151 Q510 131 516.5 119.5 Q523 108 540 108 Q548 108 555 109 Q562 110 569 112 L584 2 Q562 -4 540 -8 Q518 -12 486 -12 Q444 -12 418.5 2 Q393 16 379 50 Q364 35 344 24 Q324 13 300.5 5.5 Q277 -2 253 -6 Q229 -10 206 -10 Q169 -10 137.5 -0.5 Q106 9 83.5 28.5 Q61 48 48 76.5 Q35 105 35 142 Q35 183 49.5 216 Q64 249 100.5 273 Q137 297 200.5 310.5 Q264 324 361 325 L361 346 Q361 378 343 397.5 Q325 417 280 417 Q236 417 215 401.5 Q194 386 190 352 L55 374 Z M101 588 Q103 617 110 642.5 Q117 668 130.5 687 Q144 706 164 716.5 Q184 727 210 727 Q233 727 251.5 720.5 Q270 714 289 705 L322 689 Q336 682 344 680 Q352 678 362 678 Q379 678 389 690.5 Q399 703 404 726 L472 714 Q471 685 463.5 659.5 Q456 634 442.5 615.5 Q429 597 409 586 Q389 575 363 575 Q340 575 321.5 582 Q303 589 284 598 L251 614 Q237 620 229 622.5 Q221 625 211 625 Q194 625 184 612.5 Q174 600 169 577 L101 588 Z " />
<glyph glyph-name="adieresis" unicode="&#xe4;" horiz-adv-x="589" d="M361 222 Q307 222 273.5 218 Q240 214 221 206 Q202 198 195.5 186.5 Q189 175 189 159 Q189 133 206 119.5 Q223 106 255 106 Q283 106 312 115.5 Q341 125 361 142 L361 222 Z M55 374 Q59 418 79.5 448.5 Q100 479 130.5 498.5 Q161 518 199.5 527 Q238 536 279 536 Q342 536 386 521 Q430 506 457.5 479.5 Q485 453 497.5 417 Q510 381 510 340 L510 151 Q510 131 516.5 119.5 Q523 108 540 108 Q548 108 555 109 Q562 110 569 112 L584 2 Q562 -4 540 -8 Q518 -12 486 -12 Q444 -12 418.5 2 Q393 16 379 50 Q364 35 344 24 Q324 13 300.5 5.5 Q277 -2 253 -6 Q229 -10 206 -10 Q169 -10 137.5 -0.5 Q106 9 83.5 28.5 Q61 48 48 76.5 Q35 105 35 142 Q35 183 49.5 216 Q64 249 100.5 273 Q137 297 200.5 310.5 Q264 324 361 325 L361 346 Q361 378 343 397.5 Q325 417 280 417 Q236 417 215 401.5 Q194 386 190 352 L55 374 Z M181 587 Q144 587 125 608 Q106 629 106 655 Q106 684 125 705 Q144 726 181 726 Q218 726 236 705 Q254 684 254 655 Q254 629 236.5 608 Q219 587 181 587 Z M393 587 Q357 587 338 608 Q319 629 319 655 Q319 684 338 705 Q357 726 393 726 Q430 726 448.5 705 Q467 684 467 655 Q467 629 448.5 608 Q430 587 393 587 Z " />
<glyph glyph-name="aring" unicode="&#xe5;" horiz-adv-x="589" d="M361 222 Q307 222 273.5 218 Q240 214 221 206 Q202 198 195.5 186.5 Q189 175 189 159 Q189 133 206 119.5 Q223 106 255 106 Q283 106 312 115.5 Q341 125 361 142 L361 222 Z M55 374 Q59 418 79.5 448.5 Q100 479 130.5 498.5 Q161 518 199.5 527 Q238 536 279 536 Q342 536 386 521 Q430 506 457.5 479.5 Q485 453 497.5 417 Q510 381 510 340 L510 151 Q510 131 516.5 119.5 Q523 108 540 108 Q548 108 555 109 Q562 110 569 112 L584 2 Q562 -4 540 -8 Q518 -12 486 -12 Q444 -12 418.5 2 Q393 16 379 50 Q364 35 344 24 Q324 13 300.5 5.5 Q277 -2 253 -6 Q229 -10 206 -10 Q169 -10 137.5 -0.5 Q106 9 83.5 28.5 Q61 48 48 76.5 Q35 105 35 142 Q35 183 49.5 216 Q64 249 100.5 273 Q137 297 200.5 310.5 Q264 324 361 325 L361 346 Q361 378 343 397.5 Q325 417 280 417 Q236 417 215 401.5 Q194 386 190 352 L55 374 Z M179 596 Q142 627 142 677 Q142 726 179.5 756.5 Q217 787 286 787 Q355 787 392.5 756.5 Q430 726 430 677 Q430 627 392.5 596.5 Q355 566 286 566 Q217 566 179 596 Z M242 677 Q242 655 255.5 646 Q269 637 286 637 Q303 637 316.5 646 Q330 655 330 677 Q330 699 317 707.5 Q304 716 286 716 Q269 716 255.5 707.5 Q242 699 242 677 Z " />
<glyph glyph-name="ae" unicode="&#xe6;" horiz-adv-x="877" d="M304 113 Q335 120 372 151 Q366 167 363 184.5 Q360 202 358 222 Q304 222 271 218 Q238 214 219 206 Q200 198 193.5 186.5 Q187 175 187 159 Q187 106 254 106 Q274 106 304 113 Z M541 401 Q513 376 507 328 Q532 323 560 321 Q588 319 608 319 Q665 319 687.5 330 Q710 341 710 367 Q710 392 688.5 409 Q667 426 619 426 Q569 426 541 401 Z M54 374 Q58 417 77.5 447.5 Q97 478 127 497.5 Q157 517 195.5 526.5 Q234 536 277 536 Q340 536 382.5 520.5 Q425 505 449 478 Q480 504 522 520 Q564 536 620 536 Q676 536 718 522 Q760 508 788 484.5 Q816 461 830 430 Q844 399 844 364 Q844 318 830.5 287.5 Q817 257 790.5 239 Q764 221 725 213.5 Q686 206 634 206 Q595 206 564 209 Q533 212 506 218 Q511 163 550 137.5 Q589 112 657 112 Q689 112 731.5 120.5 Q774 129 806 143 L824 25 Q782 6 733 -3 Q684 -12 640 -12 Q495 -12 424 64 Q391 38 360 23.5 Q329 9 301.5 1.5 Q274 -6 251.5 -8 Q229 -10 212 -10 Q132 -10 82.5 28.5 Q33 67 33 142 Q33 183 47.5 216 Q62 249 99 273 Q136 297 199.5 310.5 Q263 324 360 325 L360 346 Q360 380 342 398.5 Q324 417 279 417 Q234 417 213 401.5 Q192 386 188 352 L54 374 Z " />
<glyph glyph-name="ccedilla" unicode="&#xe7;" horiz-adv-x="568" d="M536 147 Q512 78 453.5 33 Q395 -12 300 -12 Q231 -12 180.5 10 Q130 32 97 69.5 Q64 107 48 157.5 Q32 208 32 266 Q32 321 48 370 Q64 419 97 456 Q130 493 180.5 514.5 Q231 536 300 536 Q395 536 453.5 491 Q512 446 536 377 L399 342 Q387 376 363 397.5 Q339 419 300 419 Q267 419 245.5 405 Q224 391 211 369 Q198 347 192.5 320 Q187 293 187 266 Q187 237 192 208 Q197 179 210 156 Q223 133 245 119 Q267 105 300 105 Q339 105 363 126.5 Q387 148 399 182 L536 147 Z M196 -158 Q211 -164 229 -168.5 Q247 -173 265 -173 Q285 -173 302 -165.5 Q319 -158 319 -141 Q319 -124 304.5 -119 Q290 -114 276 -114 Q257 -114 239 -120 L219 -58 Q239 -50 259 -46.5 Q279 -43 298 -43 Q319 -43 338.5 -48 Q358 -53 373 -64.5 Q388 -76 397 -94 Q406 -112 406 -137 Q406 -164 395.5 -184 Q385 -204 367 -217 Q349 -230 325.5 -236 Q302 -242 277 -242 Q244 -242 219 -237.5 Q194 -233 171 -223 L196 -158 Z " />
<glyph glyph-name="egrave" unicode="&#xe8;" horiz-adv-x="553" d="M217 401 Q189 376 184 328 Q208 323 236 321 Q264 319 284 319 Q342 319 364 330 Q386 341 386 367 Q386 392 364.5 409 Q343 426 295 426 Q245 426 217 401 Z M500 25 Q458 6 409 -3 Q360 -12 317 -12 Q175 -12 103.5 59.5 Q32 131 32 260 Q32 317 48 367.5 Q64 418 96.5 455.5 Q129 493 179 514.5 Q229 536 297 536 Q353 536 395 522 Q437 508 465 484.5 Q493 461 506.5 430 Q520 399 520 364 Q520 318 506.5 287.5 Q493 257 466.5 239 Q440 221 401 213.5 Q362 206 310 206 Q271 206 240.5 209 Q210 212 182 218 Q188 164 226.5 138 Q265 112 333 112 Q365 112 407.5 120.5 Q450 129 482 143 L500 25 Z M238 577 L123 749 L265 749 L343 577 L238 577 Z " />
<glyph glyph-name="eacute" unicode="&#xe9;" horiz-adv-x="553" d="M217 401 Q189 376 184 328 Q208 323 236 321 Q264 319 284 319 Q342 319 364 330 Q386 341 386 367 Q386 392 364.5 409 Q343 426 295 426 Q245 426 217 401 Z M500 25 Q458 6 409 -3 Q360 -12 317 -12 Q175 -12 103.5 59.5 Q32 131 32 260 Q32 317 48 367.5 Q64 418 96.5 455.5 Q129 493 179 514.5 Q229 536 297 536 Q353 536 395 522 Q437 508 465 484.5 Q493 461 506.5 430 Q520 399 520 364 Q520 318 506.5 287.5 Q493 257 466.5 239 Q440 221 401 213.5 Q362 206 310 206 Q271 206 240.5 209 Q210 212 182 218 Q188 164 226.5 138 Q265 112 333 112 Q365 112 407.5 120.5 Q450 129 482 143 L500 25 Z M237 577 L315 749 L457 749 L341 577 L237 577 Z " />
<glyph glyph-name="ecircumflex" unicode="&#xea;" horiz-adv-x="553" d="M217 401 Q189 376 184 328 Q208 323 236 321 Q264 319 284 319 Q342 319 364 330 Q386 341 386 367 Q386 392 364.5 409 Q343 426 295 426 Q245 426 217 401 Z M500 25 Q458 6 409 -3 Q360 -12 317 -12 Q175 -12 103.5 59.5 Q32 131 32 260 Q32 317 48 367.5 Q64 418 96.5 455.5 Q129 493 179 514.5 Q229 536 297 536 Q353 536 395 522 Q437 508 465 484.5 Q493 461 506.5 430 Q520 399 520 364 Q520 318 506.5 287.5 Q493 257 466.5 239 Q440 221 401 213.5 Q362 206 310 206 Q271 206 240.5 209 Q210 212 182 218 Q188 164 226.5 138 Q265 112 333 112 Q365 112 407.5 120.5 Q450 129 482 143 L500 25 Z M112 577 L223 749 L355 749 L466 577 L363 577 L289 670 L214 577 L112 577 Z " />
<glyph glyph-name="edieresis" unicode="&#xeb;" horiz-adv-x="553" d="M217 401 Q189 376 184 328 Q208 323 236 321 Q264 319 284 319 Q342 319 364 330 Q386 341 386 367 Q386 392 364.5 409 Q343 426 295 426 Q245 426 217 401 Z M500 25 Q458 6 409 -3 Q360 -12 317 -12 Q175 -12 103.5 59.5 Q32 131 32 260 Q32 317 48 367.5 Q64 418 96.5 455.5 Q129 493 179 514.5 Q229 536 297 536 Q353 536 395 522 Q437 508 465 484.5 Q493 461 506.5 430 Q520 399 520 364 Q520 318 506.5 287.5 Q493 257 466.5 239 Q440 221 401 213.5 Q362 206 310 206 Q271 206 240.5 209 Q210 212 182 218 Q188 164 226.5 138 Q265 112 333 112 Q365 112 407.5 120.5 Q450 129 482 143 L500 25 Z M184 587 Q147 587 128 608 Q109 629 109 655 Q109 684 128 705 Q147 726 184 726 Q221 726 239 705 Q257 684 257 655 Q257 629 239.5 608 Q222 587 184 587 Z M396 587 Q360 587 341 608 Q322 629 322 655 Q322 684 341 705 Q360 726 396 726 Q433 726 451.5 705 Q470 684 470 655 Q470 629 451.5 608 Q433 587 396 587 Z " />
<glyph glyph-name="igrave" unicode="&#xec;" horiz-adv-x="271" d="M61 0 L61 524 L211 524 L211 0 L61 0 Z M84 577 L-31 749 L111 749 L189 577 L84 577 Z " />
<glyph glyph-name="iacute" unicode="&#xed;" horiz-adv-x="271" d="M61 0 L61 524 L211 524 L211 0 L61 0 Z M84 577 L162 749 L304 749 L188 577 L84 577 Z " />
<glyph glyph-name="icircumflex" unicode="&#xee;" horiz-adv-x="271" d="M61 0 L61 524 L211 524 L211 0 L61 0 Z M-41 577 L70 749 L202 749 L313 577 L210 577 L136 670 L61 577 L-41 577 Z " />
<glyph glyph-name="idieresis" unicode="&#xef;" horiz-adv-x="271" d="M61 0 L61 524 L211 524 L211 0 L61 0 Z M31 587 Q-6 587 -25 608 Q-44 629 -44 655 Q-44 684 -25 705 Q-6 726 31 726 Q68 726 86 705 Q104 684 104 655 Q104 629 86.5 608 Q69 587 31 587 Z M243 587 Q207 587 188 608 Q169 629 169 655 Q169 684 188 705 Q207 726 243 726 Q280 726 298.5 705 Q317 684 317 655 Q317 629 298.5 608 Q280 587 243 587 Z " />
<glyph glyph-name="eth" unicode="&#xf0;" horiz-adv-x="593" d="M405 266 Q405 314 396 359 Q367 373 342 377.5 Q317 382 302 382 Q268 382 245.5 369.5 Q223 357 210 336.5 Q197 316 192 290 Q187 264 187 236 Q187 212 192.5 188.5 Q198 165 210 147 Q222 129 241.5 118 Q261 107 289 107 Q346 107 375.5 150 Q405 193 405 266 Z M121 509 L121 609 L205 626 Q185 638 163 649 Q141 660 118 670 L254 731 Q286 717 315.5 698.5 Q345 680 373 659 L514 688 L514 587 L459 576 Q505 519 532 449.5 Q559 380 559 299 Q559 242 544.5 186.5 Q530 131 497.5 86.5 Q465 42 412.5 15 Q360 -12 283 -12 Q219 -12 171.5 10 Q124 32 93.5 68.5 Q63 105 48 152.5 Q33 200 33 251 Q33 298 45.5 342.5 Q58 387 85.5 421.5 Q113 456 157 477 Q201 498 265 498 Q287 498 309 494 Q331 490 351 482 Q341 499 329.5 515 Q318 531 304 545 L121 509 Z " />
<glyph glyph-name="ntilde" unicode="&#xf1;" horiz-adv-x="614" d="M61 0 L61 524 L208 524 L208 457 Q230 489 269 512.5 Q308 536 366 536 Q416 536 452 520 Q488 504 511 476 Q534 448 545 411 Q556 374 556 333 L556 0 L406 0 L406 312 Q406 355 387 379 Q368 403 321 403 Q297 403 278.5 396 Q260 389 246.5 377.5 Q233 366 224.5 352 Q216 338 211 324 L211 0 L61 0 Z M124 588 Q126 617 133 642.5 Q140 668 153.5 687 Q167 706 187 716.5 Q207 727 233 727 Q256 727 274.5 720.5 Q293 714 312 705 L345 689 Q359 682 367 680 Q375 678 385 678 Q402 678 412 690.5 Q422 703 427 726 L495 714 Q494 685 486.5 659.5 Q479 634 465.5 615.5 Q452 597 432 586 Q412 575 386 575 Q363 575 344.5 582 Q326 589 307 598 L274 614 Q260 620 252 622.5 Q244 625 234 625 Q217 625 207 612.5 Q197 600 192 577 L124 588 Z " />
<glyph glyph-name="ograve" unicode="&#xf2;" horiz-adv-x="601" d="M211 156 Q224 133 246 119 Q268 105 301 105 Q334 105 356 119 Q378 133 391 156 Q404 179 409.5 208 Q415 237 415 266 Q415 293 409.5 320 Q404 347 390.5 369 Q377 391 355.5 405 Q334 419 301 419 Q268 419 246 405 Q224 391 211 369 Q198 347 192.5 320 Q187 293 187 266 Q187 237 192.5 208 Q198 179 211 156 Z M181 10 Q131 32 98 69.5 Q65 107 48.5 157.5 Q32 208 32 266 Q32 321 48 370 Q64 419 97.5 456 Q131 493 181.5 514.5 Q232 536 301 536 Q370 536 420.5 514.5 Q471 493 504 456 Q537 419 553 370 Q569 321 569 266 Q569 208 553 157.5 Q537 107 504 69.5 Q471 32 420.5 10 Q370 -12 301 -12 Q232 -12 181 10 Z M249 577 L134 749 L276 749 L354 577 L249 577 Z " />
<glyph glyph-name="oacute" unicode="&#xf3;" horiz-adv-x="601" d="M211 156 Q224 133 246 119 Q268 105 301 105 Q334 105 356 119 Q378 133 391 156 Q404 179 409.5 208 Q415 237 415 266 Q415 293 409.5 320 Q404 347 390.5 369 Q377 391 355.5 405 Q334 419 301 419 Q268 419 246 405 Q224 391 211 369 Q198 347 192.5 320 Q187 293 187 266 Q187 237 192.5 208 Q198 179 211 156 Z M181 10 Q131 32 98 69.5 Q65 107 48.5 157.5 Q32 208 32 266 Q32 321 48 370 Q64 419 97.5 456 Q131 493 181.5 514.5 Q232 536 301 536 Q370 536 420.5 514.5 Q471 493 504 456 Q537 419 553 370 Q569 321 569 266 Q569 208 553 157.5 Q537 107 504 69.5 Q471 32 420.5 10 Q370 -12 301 -12 Q232 -12 181 10 Z M248 577 L326 749 L468 749 L352 577 L248 577 Z " />
<glyph glyph-name="ocircumflex" unicode="&#xf4;" horiz-adv-x="601" d="M211 156 Q224 133 246 119 Q268 105 301 105 Q334 105 356 119 Q378 133 391 156 Q404 179 409.5 208 Q415 237 415 266 Q415 293 409.5 320 Q404 347 390.5 369 Q377 391 355.5 405 Q334 419 301 419 Q268 419 246 405 Q224 391 211 369 Q198 347 192.5 320 Q187 293 187 266 Q187 237 192.5 208 Q198 179 211 156 Z M181 10 Q131 32 98 69.5 Q65 107 48.5 157.5 Q32 208 32 266 Q32 321 48 370 Q64 419 97.5 456 Q131 493 181.5 514.5 Q232 536 301 536 Q370 536 420.5 514.5 Q471 493 504 456 Q537 419 553 370 Q569 321 569 266 Q569 208 553 157.5 Q537 107 504 69.5 Q471 32 420.5 10 Q370 -12 301 -12 Q232 -12 181 10 Z M123 577 L234 749 L366 749 L477 577 L374 577 L300 670 L225 577 L123 577 Z " />
<glyph glyph-name="otilde" unicode="&#xf5;" horiz-adv-x="601" d="M211 156 Q224 133 246 119 Q268 105 301 105 Q334 105 356 119 Q378 133 391 156 Q404 179 409.5 208 Q415 237 415 266 Q415 293 409.5 320 Q404 347 390.5 369 Q377 391 355.5 405 Q334 419 301 419 Q268 419 246 405 Q224 391 211 369 Q198 347 192.5 320 Q187 293 187 266 Q187 237 192.5 208 Q198 179 211 156 Z M181 10 Q131 32 98 69.5 Q65 107 48.5 157.5 Q32 208 32 266 Q32 321 48 370 Q64 419 97.5 456 Q131 493 181.5 514.5 Q232 536 301 536 Q370 536 420.5 514.5 Q471 493 504 456 Q537 419 553 370 Q569 321 569 266 Q569 208 553 157.5 Q537 107 504 69.5 Q471 32 420.5 10 Q370 -12 301 -12 Q232 -12 181 10 Z M115 588 Q117 617 124 642.5 Q131 668 144.5 687 Q158 706 178 716.5 Q198 727 224 727 Q247 727 265.5 720.5 Q284 714 303 705 L336 689 Q350 682 358 680 Q366 678 376 678 Q393 678 403 690.5 Q413 703 418 726 L486 714 Q485 685 477.5 659.5 Q470 634 456.5 615.5 Q443 597 423 586 Q403 575 377 575 Q354 575 335.5 582 Q317 589 298 598 L265 614 Q251 620 243 622.5 Q235 625 225 625 Q208 625 198 612.5 Q188 600 183 577 L115 588 Z " />
<glyph glyph-name="odieresis" unicode="&#xf6;" horiz-adv-x="601" d="M211 156 Q224 133 246 119 Q268 105 301 105 Q334 105 356 119 Q378 133 391 156 Q404 179 409.5 208 Q415 237 415 266 Q415 293 409.5 320 Q404 347 390.5 369 Q377 391 355.5 405 Q334 419 301 419 Q268 419 246 405 Q224 391 211 369 Q198 347 192.5 320 Q187 293 187 266 Q187 237 192.5 208 Q198 179 211 156 Z M181 10 Q131 32 98 69.5 Q65 107 48.5 157.5 Q32 208 32 266 Q32 321 48 370 Q64 419 97.5 456 Q131 493 181.5 514.5 Q232 536 301 536 Q370 536 420.5 514.5 Q471 493 504 456 Q537 419 553 370 Q569 321 569 266 Q569 208 553 157.5 Q537 107 504 69.5 Q471 32 420.5 10 Q370 -12 301 -12 Q232 -12 181 10 Z M195 587 Q158 587 139 608 Q120 629 120 655 Q120 684 139 705 Q158 726 195 726 Q232 726 250 705 Q268 684 268 655 Q268 629 250.5 608 Q233 587 195 587 Z M407 587 Q371 587 352 608 Q333 629 333 655 Q333 684 352 705 Q371 726 407 726 Q444 726 462.5 705 Q481 684 481 655 Q481 629 462.5 608 Q444 587 407 587 Z " />
<glyph glyph-name="divide" unicode="&#xf7;" horiz-adv-x="565" d="M223 88 Q201 109 201 144 Q201 174 221.5 197 Q242 220 284 220 Q322 220 343.5 199.5 Q365 179 365 144 Q365 109 342.5 88.5 Q320 68 284 68 Q246 68 223 88 Z M28 283 L28 407 L538 407 L538 283 L28 283 Z M223 491 Q201 511 201 546 Q201 577 221.5 599.5 Q242 622 284 622 Q322 622 343.5 601.5 Q365 581 365 546 Q365 511 342.5 491 Q320 471 284 471 Q246 471 223 491 Z " />
<glyph glyph-name="oslash" unicode="&#xf8;" horiz-adv-x="601" d="M340 412 Q325 419 301 419 Q268 419 246 405 Q224 391 211 369 Q198 347 192.5 320 Q187 293 187 266 Q187 247 188.5 229 Q190 211 195 194 L340 412 Z M260 112 Q277 105 301 105 Q334 105 356 119 Q378 133 391 156 Q404 179 409.5 208 Q415 237 415 266 Q415 301 406 332 L260 112 Z M44 -34 L106 60 Q68 98 50 151 Q32 204 32 266 Q32 321 48 370 Q64 419 97.5 456 Q131 493 181.5 514.5 Q232 536 301 536 Q332 536 359.5 531 Q387 526 411 518 L436 556 L555 556 L494 465 Q532 427 550.5 376 Q569 325 569 266 Q569 208 553 157.5 Q537 107 504 69.5 Q471 32 420.5 10 Q370 -12 301 -12 Q269 -12 241.5 -7 Q214 -2 191 6 L164 -34 L44 -34 Z " />
<glyph glyph-name="ugrave" unicode="&#xf9;" horiz-adv-x="604" d="M395 0 L395 66 Q375 34 338 11 Q301 -12 237 -12 Q192 -12 158.5 3 Q125 18 102.5 44 Q80 70 69 105.5 Q58 141 58 182 L58 524 L208 524 L208 204 Q208 187 211.5 172 Q215 157 223.5 145.5 Q232 134 247 127.5 Q262 121 286 121 Q331 121 356 144 Q381 167 392 198 L392 524 L542 524 L542 0 L395 0 Z M250 577 L135 749 L277 749 L355 577 L250 577 Z " />
<glyph glyph-name="uacute" unicode="&#xfa;" horiz-adv-x="604" d="M395 0 L395 66 Q375 34 338 11 Q301 -12 237 -12 Q192 -12 158.5 3 Q125 18 102.5 44 Q80 70 69 105.5 Q58 141 58 182 L58 524 L208 524 L208 204 Q208 187 211.5 172 Q215 157 223.5 145.5 Q232 134 247 127.5 Q262 121 286 121 Q331 121 356 144 Q381 167 392 198 L392 524 L542 524 L542 0 L395 0 Z M249 577 L327 749 L469 749 L353 577 L249 577 Z " />
<glyph glyph-name="ucircumflex" unicode="&#xfb;" horiz-adv-x="604" d="M395 0 L395 66 Q375 34 338 11 Q301 -12 237 -12 Q192 -12 158.5 3 Q125 18 102.5 44 Q80 70 69 105.5 Q58 141 58 182 L58 524 L208 524 L208 204 Q208 187 211.5 172 Q215 157 223.5 145.5 Q232 134 247 127.5 Q262 121 286 121 Q331 121 356 144 Q381 167 392 198 L392 524 L542 524 L542 0 L395 0 Z M124 577 L235 749 L367 749 L478 577 L375 577 L301 670 L226 577 L124 577 Z " />
<glyph glyph-name="udieresis" unicode="&#xfc;" horiz-adv-x="604" d="M395 0 L395 66 Q375 34 338 11 Q301 -12 237 -12 Q192 -12 158.5 3 Q125 18 102.5 44 Q80 70 69 105.5 Q58 141 58 182 L58 524 L208 524 L208 204 Q208 187 211.5 172 Q215 157 223.5 145.5 Q232 134 247 127.5 Q262 121 286 121 Q331 121 356 144 Q381 167 392 198 L392 524 L542 524 L542 0 L395 0 Z M196 587 Q159 587 140 608 Q121 629 121 655 Q121 684 140 705 Q159 726 196 726 Q233 726 251 705 Q269 684 269 655 Q269 629 251.5 608 Q234 587 196 587 Z M408 587 Q372 587 353 608 Q334 629 334 655 Q334 684 353 705 Q372 726 408 726 Q445 726 463.5 705 Q482 684 482 655 Q482 629 463.5 608 Q445 587 408 587 Z " />
<glyph glyph-name="yacute" unicode="&#xfd;" horiz-adv-x="579" d="M50 -85 Q78 -96 109 -96 Q155 -96 179 -72.5 Q203 -49 217 -4 L12 524 L173 524 L299 163 L419 524 L572 524 L363 -44 Q346 -91 325 -124 Q304 -157 277.5 -177.5 Q251 -198 217.5 -207 Q184 -216 143 -216 Q115 -216 86 -211 Q57 -206 33 -196 L50 -85 Z M243 577 L321 749 L463 749 L347 577 L243 577 Z " />
<glyph glyph-name="thorn" unicode="&#xfe;" horiz-adv-x="597" d="M211 121 Q228 114 247.5 111.5 Q267 109 281 109 Q411 109 411 272 Q411 304 404.5 330 Q398 356 384 375 Q370 394 347.5 404.5 Q325 415 293 415 Q274 415 251 412 Q228 409 211 403 L211 121 Z M61 -194 L61 731 L211 731 L211 527 Q230 531 250.5 533.5 Q271 536 293 536 Q365 536 416.5 516 Q468 496 501 461 Q534 426 549.5 378.5 Q565 331 565 275 Q565 196 544.5 141 Q524 86 489 52 Q454 18 409 3 Q364 -12 314 -12 Q288 -12 258 -7 Q228 -2 211 6 L211 -194 L61 -194 Z " />
<glyph glyph-name="ydieresis" unicode="&#xff;" horiz-adv-x="579" d="M50 -85 Q78 -96 109 -96 Q155 -96 179 -72.5 Q203 -49 217 -4 L12 524 L173 524 L299 163 L419 524 L572 524 L363 -44 Q346 -91 325 -124 Q304 -157 277.5 -177.5 Q251 -198 217.5 -207 Q184 -216 143 -216 Q115 -216 86 -211 Q57 -206 33 -196 L50 -85 Z M190 587 Q153 587 134 608 Q115 629 115 655 Q115 684 134 705 Q153 726 190 726 Q227 726 245 705 Q263 684 263 655 Q263 629 245.5 608 Q228 587 190 587 Z M402 587 Q366 587 347 608 Q328 629 328 655 Q328 684 347 705 Q366 726 402 726 Q439 726 457.5 705 Q476 684 476 655 Q476 629 457.5 608 Q439 587 402 587 Z " />
<glyph glyph-name="Lslash" unicode="&#x141;" horiz-adv-x="562" d="M70 0 L70 225 L-6 186 L-6 309 L70 348 L70 678 L229 678 L229 429 L386 510 L386 386 L229 306 L229 142 L518 142 L518 0 L70 0 Z " />
<glyph glyph-name="dotlessi" unicode="&#x131;" horiz-adv-x="271" d="M61 0 L61 524 L211 524 L211 0 L61 0 Z " />
<glyph glyph-name="lslash" unicode="&#x142;" horiz-adv-x="340" d="M-3 248 L-3 370 L58 401 L58 731 L208 731 L208 478 L308 530 L308 408 L208 356 L208 184 Q208 146 218.5 127 Q229 108 263 108 Q291 108 316 115 L326 3 Q303 -4 274 -8 Q245 -12 220 -12 Q133 -12 95.5 26 Q58 64 58 151 L58 279 L-3 248 Z " />
<glyph glyph-name="caron" unicode="&#x2c7;" horiz-adv-x="500" d="M184 577 L73 749 L175 749 L250 656 L324 749 L427 749 L316 577 L184 577 Z " />
<glyph glyph-name="breve" unicode="&#x2d8;" horiz-adv-x="500" d="M165 735 Q174 700 194.5 680 Q215 660 250 660 Q285 660 305.5 680 Q326 700 335 735 L411 735 Q409 705 398.5 676 Q388 647 368.5 625 Q349 603 319.5 589.5 Q290 576 250 576 Q210 576 180.5 589.5 Q151 603 131.5 625 Q112 647 101.5 676 Q91 705 89 735 L165 735 Z " />
<glyph glyph-name="ring" unicode="&#x2da;" horiz-adv-x="500" d="M143 596 Q106 627 106 677 Q106 726 143.5 756.5 Q181 787 250 787 Q319 787 356.5 756.5 Q394 726 394 677 Q394 627 356.5 596.5 Q319 566 250 566 Q181 566 143 596 Z M206 677 Q206 655 219.5 646 Q233 637 250 637 Q267 637 280.5 646 Q294 655 294 677 Q294 699 281 707.5 Q268 716 250 716 Q233 716 219.5 707.5 Q206 699 206 677 Z " />
<glyph glyph-name="hungarumlaut" unicode="&#x2dd;" horiz-adv-x="500" d="M37 576 L115 749 L257 749 Q228 705 199 662.5 Q170 620 141 576 L37 576 Z M242 576 L320 749 L462 749 Q433 705 404 662.5 Q375 620 346 576 L242 576 Z " />
<glyph glyph-name="dotaccent" unicode="&#x2d9;" horiz-adv-x="500" d="M250 581 Q209 581 188.5 604 Q168 627 168 656 Q168 688 188.5 711 Q209 734 250 734 Q292 734 312 711 Q332 688 332 656 Q332 627 312 604 Q292 581 250 581 Z " />
<glyph glyph-name="ogonek" unicode="&#x2db;" horiz-adv-x="500" d="M360 -223 Q346 -230 320.5 -236 Q295 -242 258 -242 Q201 -242 170 -215.5 Q139 -189 139 -141 Q139 -106 159.5 -67.5 Q180 -29 222 0 L313 0 Q281 -22 260.5 -53 Q240 -84 240 -120 Q240 -142 253 -151.5 Q266 -161 289 -161 Q299 -161 317.5 -158 Q336 -155 351 -147 L360 -223 Z " />
<glyph glyph-name="&amp;#xf11d;" unicode="&#xf11d;" horiz-adv-x="803" d="M368 357 L422 357 Q442 357 454.5 361.5 Q467 366 474.5 373.5 Q482 381 485 390.5 Q488 400 488 410 Q488 430 474 445.5 Q460 461 421 461 L368 461 L368 357 Z M263 162 L263 551 L440 551 Q469 551 496.5 544.5 Q524 538 545 522 Q566 506 578.5 480 Q591 454 591 415 Q591 345 549.5 308 Q508 271 440 271 L368 271 L368 162 L263 162 Z M197 153 Q233 113 285 90 Q337 67 401 67 Q466 67 518 90 Q570 113 606 153 Q642 193 661.5 245.5 Q681 298 681 358 Q681 417 661.5 469.5 Q642 522 606 561.5 Q570 601 518 624 Q466 647 401 647 Q337 647 285 624 Q233 601 197 561.5 Q161 522 141.5 469.5 Q122 417 122 358 Q122 298 141.5 245.5 Q161 193 197 153 Z M253 11 Q186 39 136.5 89 Q87 139 59 207.5 Q31 276 31 358 Q31 439 59 507 Q87 575 136.5 625 Q186 675 253.5 703 Q321 731 401 731 Q481 731 549 703 Q617 675 666.5 625 Q716 575 743.5 507 Q771 439 771 358 Q771 276 743.5 207.5 Q716 139 666.5 89 Q617 39 549 11 Q481 -17 401 -17 Q321 -17 253 11 Z " />
<glyph glyph-name="&amp;#xf12e;" unicode="&#xf12e;" horiz-adv-x="803" d="M368 357 L422 357 Q442 357 454.5 361.5 Q467 366 474.5 373.5 Q482 381 485 390.5 Q488 400 488 410 Q488 430 474 445.5 Q460 461 421 461 L368 461 L368 357 Z M263 162 L263 551 L440 551 Q469 551 496.5 544.5 Q524 538 545 522 Q566 506 578.5 480 Q591 454 591 415 Q591 345 549.5 308 Q508 271 440 271 L368 271 L368 162 L263 162 Z M197 153 Q233 113 285 90 Q337 67 401 67 Q466 67 518 90 Q570 113 606 153 Q642 193 661.5 245.5 Q681 298 681 358 Q681 417 661.5 469.5 Q642 522 606 561.5 Q570 601 518 624 Q466 647 401 647 Q337 647 285 624 Q233 601 197 561.5 Q161 522 141.5 469.5 Q122 417 122 358 Q122 298 141.5 245.5 Q161 193 197 153 Z M253 11 Q186 39 136.5 89 Q87 139 59 207.5 Q31 276 31 358 Q31 439 59 507 Q87 575 136.5 625 Q186 675 253.5 703 Q321 731 401 731 Q481 731 549 703 Q617 675 666.5 625 Q716 575 743.5 507 Q771 439 771 358 Q771 276 743.5 207.5 Q716 139 666.5 89 Q617 39 549 11 Q481 -17 401 -17 Q321 -17 253 11 Z " />
<glyph glyph-name="fraction" unicode="&#x2044;" horiz-adv-x="182" d="M-147 -24 L239 720 L329 720 L-57 -24 L-147 -24 Z " />
<glyph glyph-name="minus" unicode="&#x2212;" horiz-adv-x="565" d="M28 283 L28 408 L538 408 L538 283 L28 283 Z " />
<glyph glyph-name="notequal" unicode="&#x2260;" horiz-adv-x="565" d="M121 44 L166 155 L28 155 L28 278 L215 278 L269 413 L28 413 L28 536 L319 536 L368 656 L476 656 L426 536 L538 536 L538 413 L377 413 L322 278 L538 278 L538 155 L273 155 L227 44 L121 44 Z " />
<glyph glyph-name="approxequal" unicode="&#x2248;" horiz-adv-x="565" d="M37 512 Q63 538 95.5 554 Q128 570 166 570 Q197 570 226.5 559 Q256 548 285 535.5 Q314 523 342 512 Q370 501 398 501 Q440 501 471 520.5 Q502 540 528 569 L528 437 Q502 411 470 395.5 Q438 380 400 380 Q369 380 339.5 391 Q310 402 281 414.5 Q252 427 223.5 438 Q195 449 167 449 Q125 449 94 429.5 Q63 410 37 380 L37 512 Z M37 254 Q63 280 95.5 295.5 Q128 311 166 311 Q197 311 226.5 300.5 Q256 290 285 277 Q314 264 342 253.5 Q370 243 398 243 Q440 243 471 262.5 Q502 282 528 312 L528 179 Q502 153 470 137.5 Q438 122 400 122 Q369 122 339.5 132.5 Q310 143 281 156 Q252 169 223.5 179.5 Q195 190 167 190 Q125 190 94 170.5 Q63 151 37 122 L37 254 Z " />
<glyph glyph-name="lessequal" unicode="&#x2264;" horiz-adv-x="565" d="M27 -28 L27 95 L537 95 L537 -28 L27 -28 Z M28 407 L537 567 L537 439 L181 345 L537 250 L537 123 Q526 127 487 139 Q448 151 395.5 167.5 Q343 184 283 202 Q223 220 170.5 236.5 Q118 253 78.5 265.5 Q39 278 28 282 L28 407 Z " />
<glyph glyph-name="greaterequal" unicode="&#x2265;" horiz-adv-x="565" d="M27 -27 L27 94 L537 94 L537 -27 L27 -27 Z M27 122 L27 250 L383 345 L27 438 L27 566 L536 407 L536 281 L27 122 Z " />
<glyph glyph-name="infinity" unicode="&#x221e;" horiz-adv-x="804" d="M164 244 Q173 231 187 223 Q201 215 220 215 Q259 215 284.5 242 Q310 269 330 306 Q310 341 284.5 367.5 Q259 394 220 394 Q202 394 188 386.5 Q174 379 164.5 366.5 Q155 354 150.5 338 Q146 322 146 306 Q146 290 150.5 273.5 Q155 257 164 244 Z M499 336 Q489 320 480 303 Q489 287 499.5 271 Q510 255 522 242.5 Q534 230 548 222.5 Q562 215 579 215 Q621 215 640 242 Q659 269 659 306 Q659 342 639.5 368 Q620 394 579 394 Q561 394 546.5 386.5 Q532 379 520.5 366 Q509 353 499 336 Z M492 123 Q446 159 408 222 Q391 194 371 170 Q351 146 327 128 Q303 110 274.5 99.5 Q246 89 213 89 Q165 89 130.5 106.5 Q96 124 73.5 154 Q51 184 40.5 223.5 Q30 263 30 308 Q30 350 41.5 388.5 Q53 427 76 457 Q99 487 133.5 505 Q168 523 213 523 Q246 523 273.5 512.5 Q301 502 324 483.5 Q347 465 366 441 Q385 417 402 390 Q419 417 437 441.5 Q455 466 476.5 484 Q498 502 525 512.5 Q552 523 586 523 Q633 523 668 506 Q703 489 726.5 460 Q750 431 761.5 391.5 Q773 352 773 308 Q773 257 760 216.5 Q747 176 723.5 147 Q700 118 667.5 102.5 Q635 87 596 87 Q539 87 492 123 Z " />
<glyph glyph-name="lozenge" unicode="&#x25ca;" horiz-adv-x="565" d="M283 165 L439 338 L283 511 L127 338 L283 165 Z M283 2 L-12 338 L283 674 L577 338 L283 2 Z " />
<glyph glyph-name="Delta" unicode="&#x2206;" horiz-adv-x="680" d="M179 119 L481 119 L366 440 Q360 457 354.5 476 Q349 495 344.5 513 Q340 531 336 546 Q332 561 330 570 L328 570 Q324 551 314.5 513.5 Q305 476 293 440 L179 119 Z M-8 0 L224 678 L453 678 L688 0 L-8 0 Z " />
<glyph glyph-name="Omega" unicode="&#x2126;" horiz-adv-x="788" d="M55 0 L55 116 L250 116 L250 141 Q153 170 100.5 233.5 Q48 297 48 401 Q48 481 78 536.5 Q108 592 157 627 Q206 662 267 678 Q328 694 390 694 Q452 694 512.5 678 Q573 662 622 627 Q671 592 701 536.5 Q731 481 731 401 Q731 297 678.5 233.5 Q626 170 529 141 L529 116 L724 116 L724 0 L440 0 L440 218 Q474 225 498 243 Q522 261 537 285 Q552 309 559 337 Q566 365 566 393 Q566 424 557.5 456 Q549 488 528.5 513.5 Q508 539 474.5 555 Q441 571 390 571 Q339 571 305 555 Q271 539 250.5 513.5 Q230 488 221.5 456 Q213 424 213 393 Q213 365 220 337 Q227 309 242.5 285 Q258 261 282 243 Q306 225 340 218 L340 0 L55 0 Z " />
<glyph glyph-name="partialdiff" unicode="&#x2202;" horiz-adv-x="565" d="M186 129 Q200 105 222 90.5 Q244 76 277 76 Q309 76 331.5 90.5 Q354 105 368 129.5 Q382 154 388.5 186.5 Q395 219 395 255 Q395 288 389 316.5 Q383 345 369.5 366.5 Q356 388 333.5 400.5 Q311 413 279 413 Q247 413 224.5 399.5 Q202 386 188 362.5 Q174 339 167.5 308.5 Q161 278 161 244 Q161 213 167 183 Q173 153 186 129 Z M89 736 Q140 750 198 750 Q281 750 345.5 718 Q410 686 454 627.5 Q498 569 521 487.5 Q544 406 544 306 Q544 231 528 171 Q512 111 479 69 Q446 27 396 5 Q346 -17 277 -17 Q213 -17 165.5 2.5 Q118 22 86 56.5 Q54 91 38 138.5 Q22 186 22 243 Q22 296 37 343.5 Q52 391 81 427.5 Q110 464 153.5 485.5 Q197 507 255 507 Q297 507 333.5 492 Q370 477 393 447 Q387 494 369 530.5 Q351 567 325 592.5 Q299 618 265.5 631 Q232 644 195 644 Q172 644 148.5 639 Q125 634 105 624 L89 736 Z " />
<glyph glyph-name="integral" unicode="&#x222b;" horiz-adv-x="460" d="M-32 -81 Q-18 -91 3 -98.5 Q24 -106 50 -106 Q79 -106 98 -96.5 Q117 -87 128.5 -72 Q140 -57 145 -37 Q150 -17 150 4 L150 531 Q150 634 211.5 693 Q273 752 383 752 Q422 752 454.5 745.5 Q487 739 518 725 L492 617 Q478 627 455.5 634.5 Q433 642 407 642 Q353 642 330 610.5 Q307 579 307 528 L307 1 Q307 -51 288.5 -91 Q270 -131 238.5 -158.5 Q207 -186 164.5 -200.5 Q122 -215 74 -215 Q35 -215 4.5 -208.5 Q-26 -202 -58 -188 L-32 -81 Z " />
<glyph glyph-name="radical" unicode="&#x221a;" horiz-adv-x="565" d="M229 0 L89 420 L-8 420 L-8 542 L193 542 L294 195 L456 750 L582 750 L354 0 L229 0 Z " />
<glyph glyph-name="summation" unicode="&#x2211;" horiz-adv-x="584" d="M15 -136 L15 -10 L271 291 L29 578 L29 706 L581 706 L581 576 L241 576 L485 292 L232 -7 L584 -7 L584 -136 L15 -136 Z " />
<glyph glyph-name="product" unicode="&#x220f;" horiz-adv-x="706" d="M85 -136 L85 575 L16 575 L16 706 L688 706 L688 575 L619 575 L619 -136 L458 -136 L458 575 L247 575 L247 -136 L85 -136 Z " />
<glyph glyph-name="pi" unicode="&#x3c0;" horiz-adv-x="620" d="M39 0 Q66 120 75 222.5 Q84 325 84 416 L16 416 L16 524 L603 524 L603 416 L537 416 L537 0 L386 0 L386 416 L235 416 Q235 320 226.5 219 Q218 118 191 0 L39 0 Z " />
<glyph glyph-name="fi" unicode="&#xfb01;" horiz-adv-x="625" d="M82 0 L82 410 L13 410 L13 524 L82 524 L82 572 Q82 658 137.5 694.5 Q193 731 313 731 Q331 731 354.5 729.5 Q378 728 404 725 Q430 722 456.5 717.5 Q483 713 508 706 L483 594 Q451 602 415.5 609 Q380 616 338 616 Q278 616 255 604 Q232 592 232 561 L232 524 L564 524 L564 0 L414 0 L414 410 L232 410 L232 0 L82 0 Z " />
<glyph glyph-name="fl" unicode="&#xfb02;" horiz-adv-x="698" d="M82 0 L82 410 L13 410 L13 524 L82 524 L82 572 Q82 658 137 694.5 Q192 731 292 731 Q333 731 377.5 726 Q422 721 475 708 L570 723 L570 183 Q570 145 583 126.5 Q596 108 631 108 Q643 108 654 109.5 Q665 111 676 113 L685 1 Q665 -4 639 -8 Q613 -12 590 -12 Q501 -12 460.5 26 Q420 64 420 152 L420 602 Q389 610 368.5 613 Q348 616 326 616 Q271 616 251.5 604 Q232 592 232 561 L232 524 L367 524 L367 410 L232 410 L232 0 L82 0 Z " />
<glyph glyph-name="f_f" unicode="&#xfb00;" horiz-adv-x="753" d="M82 0 L82 410 L13 410 L13 524 L82 524 L82 572 Q82 658 134 694.5 Q186 731 282 731 Q311 731 340.5 726.5 Q370 722 397 714 L381 605 Q364 610 345.5 613 Q327 616 313 616 Q275 616 253.5 604 Q232 592 232 561 L232 524 L437 524 L437 572 Q437 658 488.5 694.5 Q540 731 636 731 Q669 731 704 725 Q739 719 769 708 L751 599 Q731 607 708 611.5 Q685 616 668 616 Q629 616 608 604 Q587 592 587 561 L587 524 L743 524 L743 410 L587 410 L587 0 L437 0 L437 410 L232 410 L232 0 L82 0 Z " />
<glyph glyph-name="f_f_i" unicode="&#xfb03;" horiz-adv-x="978" d="M82 0 L82 410 L13 410 L13 524 L82 524 L82 572 Q82 658 134 694.5 Q186 731 282 731 Q311 731 340.5 726.5 Q370 722 397 714 L381 605 Q364 610 345.5 613 Q327 616 313 616 Q275 616 253.5 604 Q232 592 232 561 L232 524 L437 524 L437 572 Q437 658 492 694.5 Q547 731 668 731 Q686 731 709 729.5 Q732 728 758 725 Q784 722 810.5 717.5 Q837 713 862 706 L838 594 Q806 602 770 609 Q734 616 693 616 Q632 616 609.5 604 Q587 592 587 561 L587 524 L919 524 L919 0 L769 0 L769 410 L587 410 L587 0 L437 0 L437 410 L232 410 L232 0 L82 0 Z " />
<glyph glyph-name="f_f_l" unicode="&#xfb04;" horiz-adv-x="1061" d="M82 0 L82 410 L13 410 L13 524 L82 524 L82 572 Q82 658 134 694.5 Q186 731 282 731 Q311 731 340.5 726.5 Q370 722 397 714 L381 605 Q364 610 345.5 613 Q327 616 313 616 Q275 616 253.5 604 Q232 592 232 561 L232 524 L437 524 L437 572 Q437 658 491.5 694.5 Q546 731 646 731 Q687 731 735.5 726 Q784 721 838 708 L932 723 L932 183 Q932 145 945 126.5 Q958 108 994 108 Q1005 108 1016 109.5 Q1027 111 1038 113 L1047 1 Q1027 -4 1001 -8 Q975 -12 952 -12 Q864 -12 823 26 Q782 64 782 152 L782 602 Q752 610 731.5 613 Q711 616 688 616 Q632 616 609.5 604 Q587 592 587 561 L587 524 L729 524 L729 410 L587 410 L587 0 L437 0 L437 410 L232 410 L232 0 L82 0 Z " />
<glyph glyph-name="litre" unicode="&#x2113;" horiz-adv-x="502" d="M214 340 Q272 388 306 446.5 Q340 505 340 577 Q340 612 329.5 634 Q319 656 295 656 Q275 656 260 634 Q245 612 234.5 574.5 Q224 537 219 486.5 Q214 436 214 378 L214 340 Z M31 217 Q51 227 68.5 236.5 Q86 246 103 257 Q100 302 100 354 Q100 550 153 651.5 Q206 753 306 753 Q375 753 412 708.5 Q449 664 449 586 Q449 528 433 476.5 Q417 425 387.5 379.5 Q358 334 317.5 294 Q277 254 228 219 Q241 153 269 120.5 Q297 88 345 88 Q377 88 402.5 100 Q428 112 448 132 L475 38 Q445 12 407 -1.5 Q369 -15 325 -15 Q244 -15 196.5 28.5 Q149 72 126 153 Q112 146 99.5 139.5 Q87 133 73 127 L31 217 Z " />
<glyph glyph-name="estimated" unicode="&#x212e;" horiz-adv-x="866" d="M197 412 L693 412 L693 525 Q654 578 589 607.5 Q524 637 445 637 Q366 637 301 608 Q236 579 197 527 L197 412 Z M197 185 Q236 132 301 102.5 Q366 73 445 73 Q521 73 581 98.5 Q641 124 685 172 L798 172 Q741 84 653 34 Q565 -16 445 -16 Q361 -16 288 10.5 Q215 37 161 85.5 Q107 134 75.5 202.5 Q44 271 44 355 Q44 439 75.5 507.5 Q107 576 161 624.5 Q215 673 288 699 Q361 725 445 725 Q531 725 604 699.5 Q677 674 731 623.5 Q785 573 815.5 498 Q846 423 846 324 L197 324 L197 185 Z " />
</font>
</svg>
